<svg width="16" height="16" viewBox="0 0 16 16" fill="none" xmlns="http://www.w3.org/2000/svg">
<path d="M3.80961 1.58341C3.80961 1.07724 4.27776 0.666748 4.85722 0.666748C5.43669 0.666748 5.90484 1.07724 5.90484 1.58341V2.50008H10.0953V1.58341C10.0953 1.07724 10.5635 0.666748 11.1429 0.666748C11.7224 0.666748 12.1906 1.07724 12.1906 1.58341V2.50008H13.762C14.6295 2.50008 15.3334 3.11568 15.3334 3.87508V5.25008H0.666748V3.87508C0.666748 3.11568 1.37029 2.50008 2.23818 2.50008H3.80961V1.58341ZM15.3334 13.9584C15.3334 14.7175 14.6295 15.3334 13.762 15.3334H2.23818C1.37029 15.3334 0.666748 14.7175 0.666748 13.9584V6.16675H15.3334V13.9584Z" fill="#232B2B"/>
</svg>
