<svg width="24" height="24" viewBox="0 0 24 24" fill="none" xmlns="http://www.w3.org/2000/svg">
<circle cx="12" cy="12" r="12" fill="#74746D"/>
<path d="M14.9688 14.2832H17.8887C17.8301 15.2402 17.5664 16.0898 17.0977 16.832C16.6354 17.5742 15.9876 18.1536 15.1543 18.5703C14.3275 18.987 13.3314 19.1953 12.166 19.1953C11.2546 19.1953 10.4375 19.0391 9.71484 18.7266C8.99219 18.4076 8.3737 17.9518 7.85938 17.3594C7.35156 16.7669 6.96419 16.0508 6.69727 15.2109C6.43034 14.3711 6.29688 13.4303 6.29688 12.3887V11.4023C6.29688 10.3607 6.43359 9.41992 6.70703 8.58008C6.98698 7.73372 7.38411 7.01432 7.89844 6.42188C8.41927 5.82943 9.04102 5.3737 9.76367 5.05469C10.4863 4.73568 11.2936 4.57617 12.1855 4.57617C13.3704 4.57617 14.3698 4.79102 15.1836 5.2207C16.0039 5.65039 16.6387 6.24284 17.0879 6.99805C17.5436 7.75326 17.8171 8.61263 17.9082 9.57617H14.9785C14.946 9.00326 14.832 8.51823 14.6367 8.12109C14.4414 7.71745 14.1452 7.41471 13.748 7.21289C13.3574 7.00456 12.8366 6.90039 12.1855 6.90039C11.6973 6.90039 11.2708 6.99154 10.9062 7.17383C10.5417 7.35612 10.2357 7.63281 9.98828 8.00391C9.74089 8.375 9.55534 8.84375 9.43164 9.41016C9.31445 9.97005 9.25586 10.6276 9.25586 11.3828V12.3887C9.25586 13.1243 9.3112 13.7721 9.42188 14.332C9.53255 14.8854 9.70182 15.3542 9.92969 15.7383C10.1641 16.1159 10.4635 16.4023 10.8281 16.5977C11.1992 16.7865 11.6452 16.8809 12.166 16.8809C12.778 16.8809 13.2826 16.7832 13.6797 16.5879C14.0768 16.3926 14.3796 16.1029 14.5879 15.7188C14.8027 15.3346 14.9297 14.8561 14.9688 14.2832Z" fill="white"/>
</svg>
