<svg width="370" height="78" viewBox="0 0 370 78" fill="none" xmlns="http://www.w3.org/2000/svg">
<path d="M253.327 1.77148H184.786V47.3446H253.327V1.77148Z" fill="#00309F"/>
<path d="M219.06 10.6264L217.625 11.7084L218.167 9.97198L216.696 8.92598H218.518L219.06 7.22559L219.602 8.92598H221.424L219.948 9.97198L220.49 11.7084L219.06 10.6264Z" fill="#FEF100"/>
<path d="M211.585 12.6363L210.114 13.6823L210.697 11.9819L209.221 10.9359H211.007L211.585 9.23547L212.127 10.9359H213.949L212.478 11.9819L213.02 13.6823L211.585 12.6363Z" fill="#FEF100"/>
<path d="M206.086 14.678L205.544 16.4144H203.722L205.193 17.4604L204.651 19.1608L206.086 18.1148L207.557 19.1608L206.974 17.4604L208.445 16.4144H206.664L206.086 14.678Z" fill="#FEF100"/>
<path d="M205.541 26.6245L204.07 25.5785L202.635 26.6245L203.177 24.9241L201.706 23.8781H203.528L204.07 22.1417L204.648 23.8781H206.429L204.999 24.9241L205.541 26.6245Z" fill="#FEF100"/>
<path d="M206.664 31.3396L206.086 29.6392L205.544 31.3396H203.722L205.193 32.4217L204.651 34.1221L206.086 33.04L207.557 34.1221L206.974 32.4217L208.445 31.3396H206.664Z" fill="#FEF100"/>
<path d="M211.585 35.093L212.127 36.8295H213.949L212.478 37.8739L213.02 39.5743L211.585 38.5309L210.155 39.5743L210.697 37.8739L209.221 36.8295H211.043L211.585 35.093Z" fill="#FEF100"/>
<path d="M219.602 38.8018L219.06 37.1029L218.518 38.8018H216.696L218.167 39.8838L217.625 41.5847L219.06 40.5413L220.49 41.5847L219.948 39.8838L221.424 38.8018H219.602Z" fill="#FEF100"/>
<path d="M226.529 35.093L227.071 36.8295H228.888L227.417 37.8739L227.959 39.5743L226.529 38.5309L225.094 39.5743L225.636 37.8739L224.165 36.8295H225.987L226.529 35.093Z" fill="#FEF100"/>
<path d="M232.57 31.3396L232.028 29.6392L231.445 31.3396H229.664L231.135 32.4217L230.557 34.1221L232.028 33.04L233.458 34.1221L232.916 32.4217L234.392 31.3396H232.57Z" fill="#FEF100"/>
<path d="M234.546 23.8421H236.363L234.892 24.9241L235.434 26.6245L234.004 25.5425L232.569 26.6245L233.111 24.9241L231.64 23.8421H233.457L234.004 22.1417L234.546 23.8421Z" fill="#FEF100"/>
<path d="M230.557 19.1608L232.028 18.0788L233.458 19.1608L232.916 17.4604L234.392 16.3784H232.57L232.028 14.678L231.445 16.3784H229.664L231.135 17.4604L230.557 19.1608Z" fill="#FEF100"/>
<path d="M225.991 10.9359L226.569 9.23547L227.111 10.9359H228.933L227.462 11.9819L228.004 13.7183L226.569 12.6363L225.098 13.7183L225.64 11.9819L224.21 10.9359H225.991Z" fill="#FEF100"/>
<path d="M168.565 1.73828H169.107V47.3475H168.565V1.73828Z" fill="black"/>
<path d="M369.842 62.5762H0V63.0791H369.842V62.5762Z" fill="black"/>
<path d="M121.863 77.5693H124.531V76.8737H123.644V71.5009H124.531V70.8053H121.863V71.5009H122.751V76.8737H121.863V77.5693Z" fill="black"/>
<path d="M121.667 69.8773H124.728V69.1817H121.667V69.8773Z" fill="black"/>
<path d="M78.0266 77.4974C78.4912 77.3814 78.8783 77.2269 79.2293 77.0723V74.1734H76.5554V74.9463H78.3363V76.6085C78.1566 76.6813 77.9036 76.754 77.6507 76.8267L77.6033 76.8404L77.5048 76.8528C77.2349 76.8869 76.9912 76.9177 76.7516 76.9177C75.936 76.9177 75.3166 76.6858 74.852 76.1834C74.3874 75.7192 74.1551 75.0236 74.1551 74.1734C74.1551 73.3232 74.3874 72.6657 74.8107 72.2019C75.2753 71.6995 75.8586 71.4677 76.6329 71.4677C76.9426 71.4677 77.2523 71.5063 77.5259 71.545C77.7943 71.6223 78.0266 71.6995 78.2227 71.7768C78.3569 71.8311 78.4732 71.9045 78.5985 71.9835C78.6516 72.017 78.7063 72.0515 78.7647 72.086C78.9196 72.2019 79.0745 72.3179 79.1519 72.3565H79.2293V71.3131C78.7647 71.0812 78.3363 70.9266 77.9492 70.8493C77.562 70.7721 77.1387 70.6948 76.7877 70.6948C75.6624 70.6948 74.8107 71.0039 74.1912 71.6223C73.5357 72.2792 73.226 73.0908 73.226 74.1734C73.226 74.753 73.3034 75.2941 73.4944 75.7192C73.6492 76.1448 73.8815 76.5312 74.1912 76.8018C74.501 77.1109 74.8881 77.3428 75.3165 77.4587C75.7811 77.6133 76.2457 77.6906 76.7877 77.6906C77.1749 77.6906 77.6033 77.6133 78.0266 77.4974Z" fill="black"/>
<path d="M55.1048 77.5716H52.4722V76.876H53.3239V71.5033H52.4722V70.8077H55.1048V71.5033H54.2169V76.876H55.1048V77.5716Z" fill="black"/>
<path d="M66.6433 77.5716H62.1885V70.8077H66.6433V71.6192H63.0764V73.4747H66.6433V74.2476H63.0764V76.7601H66.6433V77.5716Z" fill="black"/>
<path d="M91.4667 74.866C91.4667 75.3297 91.3893 75.7553 91.2757 76.1418C91.1983 76.4896 91.0021 76.7987 90.7698 77.0306C90.5375 77.2625 90.2691 77.4171 89.9594 77.533C89.6497 77.6489 89.2625 77.6876 88.8754 77.6876C88.4469 77.6876 88.0598 77.6489 87.7501 77.533C87.4404 77.4171 87.1668 77.2625 86.9758 77.0306C86.7022 76.7987 86.5473 76.4896 86.4338 76.1418C86.3151 75.794 86.2789 75.3683 86.2789 74.866V70.8077H87.1668V74.9046C87.1668 75.2524 87.2081 75.5616 87.2442 75.7553C87.2855 75.9872 87.3629 76.1804 87.4765 76.335C87.6314 76.5282 87.8275 76.6828 88.0185 76.7601C88.2508 76.876 88.5244 76.9147 88.8754 76.9147C89.1851 76.9147 89.4535 76.876 89.6858 76.7601C89.9181 76.6828 90.073 76.5282 90.2278 76.335C90.3466 76.1804 90.424 75.9485 90.4601 75.7553C90.5375 75.5229 90.5375 75.2524 90.5375 74.9046V70.8077H91.4667V74.866Z" fill="black"/>
<path d="M98.7052 77.5716H102.964V76.7601H99.5931V70.8077H98.7052V77.5716Z" fill="black"/>
<path fill-rule="evenodd" clip-rule="evenodd" d="M115.126 74.209C115.126 74.7887 115.007 75.3683 114.739 75.8712C114.465 76.3736 114.119 76.7601 113.655 77.0306C113.345 77.2238 113.035 77.3398 112.648 77.4171C112.256 77.4943 111.755 77.5716 111.136 77.5716H109.432V70.8077H111.136C111.791 70.8077 112.297 70.885 112.684 70.9623C113.071 71.0782 113.422 71.1941 113.691 71.3487C114.119 71.6579 114.506 72.0443 114.739 72.5081C115.007 72.9718 115.126 73.552 115.126 74.209ZM114.197 74.1703C114.197 73.6679 114.119 73.2042 113.923 72.8559C113.732 72.4694 113.458 72.1989 113.113 72.0057C112.839 71.8511 112.565 71.7352 112.256 71.6965C111.946 71.6192 111.6 71.5806 111.172 71.5806H110.32V76.7987H111.172C111.6 76.7987 111.987 76.7601 112.297 76.6828C112.648 76.6442 112.916 76.5282 113.19 76.335C113.536 76.1418 113.768 75.8326 113.964 75.4843C114.119 75.1365 114.197 74.7114 114.197 74.1703Z" fill="black"/>
<path d="M134.061 75.794C134.061 76.4123 133.906 76.8374 133.555 77.1852C133.168 77.4943 132.703 77.6489 132.084 77.6489C131.929 77.6489 131.738 77.6489 131.505 77.6103C131.395 77.592 131.293 77.5823 131.196 77.5732C131.088 77.563 130.987 77.5533 130.886 77.533V76.6828H130.963C131.077 76.7214 131.232 76.7601 131.428 76.7987C131.583 76.876 131.774 76.876 131.97 76.876C132.238 76.876 132.471 76.8374 132.626 76.7987C132.78 76.7214 132.899 76.6441 132.977 76.5282C133.09 76.4123 133.131 76.2577 133.131 76.0645C133.168 75.9099 133.168 75.6775 133.168 75.4843V71.5419H131.774V70.8077H134.061V75.794Z" fill="black"/>
<path d="M146.294 76.1418C146.413 75.7553 146.449 75.3297 146.449 74.866V70.8077H145.561V74.9046C145.561 75.2524 145.52 75.5229 145.484 75.7553C145.442 75.9485 145.365 76.1804 145.251 76.335C145.096 76.5282 144.9 76.6828 144.709 76.7601C144.477 76.876 144.203 76.9147 143.858 76.9147C143.548 76.9147 143.274 76.876 143.042 76.7601C142.81 76.6828 142.655 76.5282 142.5 76.335C142.386 76.1804 142.309 75.9872 142.268 75.7553C142.19 75.5616 142.19 75.2524 142.19 74.9046V70.8077H141.302V74.866C141.302 75.3683 141.339 75.794 141.457 76.1418C141.535 76.4896 141.726 76.7987 141.958 77.0306C142.19 77.2625 142.464 77.4171 142.774 77.533C143.083 77.6489 143.429 77.6876 143.858 77.6876C144.281 77.6876 144.632 77.6489 144.942 77.533C145.251 77.4171 145.52 77.2625 145.752 77.0306C146.026 76.7987 146.18 76.4896 146.294 76.1418Z" fill="black"/>
<path d="M159.733 77.5716H158.845V71.7738L156.945 75.7161H156.444L154.586 71.7738V77.5716H153.734V70.8077H154.932L156.754 74.5568L158.494 70.8077H159.733V77.5716Z" fill="black"/>
<path d="M171.812 76.4153C171.926 76.1448 172.003 75.9129 172.003 75.6419C172.003 75.1395 171.89 74.7917 171.616 74.5212C171.348 74.2506 170.997 74.0574 170.496 73.9028C170.333 73.8798 170.172 73.8431 169.987 73.8009C169.861 73.7722 169.724 73.7409 169.567 73.7096C169.216 73.671 168.947 73.6323 168.751 73.555C168.405 73.4777 168.132 73.3618 167.977 73.2072C167.863 73.0521 167.786 72.8203 167.786 72.5497C167.786 72.2406 167.9 71.9701 168.209 71.7768C168.519 71.5836 168.87 71.4677 169.371 71.4677C169.799 71.4677 170.222 71.545 170.651 71.6995C171.074 71.8541 171.384 72.0087 171.657 72.2406H171.735V71.1585C171.425 71.0426 171.074 70.9266 170.687 70.8493C170.264 70.7334 169.835 70.6948 169.371 70.6948C168.638 70.6948 168.018 70.888 167.554 71.2358C167.089 71.6223 166.857 72.086 166.857 72.627C166.857 73.1294 166.97 73.5164 167.28 73.8256C167.554 74.1347 168.018 74.3666 168.596 74.4825C168.767 74.5038 168.927 74.5368 169.081 74.5687C169.206 74.5946 169.328 74.6198 169.448 74.6371C169.722 74.6757 169.954 74.7144 170.186 74.7917C170.496 74.869 170.687 74.9463 170.842 75.1008C170.997 75.2554 171.074 75.4487 171.074 75.7583C171.074 76.1061 170.919 76.3767 170.61 76.6085C170.3 76.8018 169.877 76.9177 169.293 76.9177C168.906 76.9177 168.483 76.8404 168.054 76.6858C167.59 76.5312 167.203 76.2994 166.857 76.0288H166.816V77.1496C167.203 77.3041 167.59 77.4587 167.977 77.536C168.364 77.652 168.793 77.6906 169.293 77.6906C169.758 77.6906 170.145 77.6133 170.455 77.4974C170.764 77.4201 171.074 77.2655 171.306 77.0723C171.503 76.879 171.694 76.6858 171.812 76.4153Z" fill="black"/>
<path d="M192.609 71.6192H190.208V77.5716H189.32V71.6192H186.92V70.8077H192.609V71.6192Z" fill="black"/>
<path fill-rule="evenodd" clip-rule="evenodd" d="M202.912 77.5716H203.877L201.399 70.8077H200.202L197.76 77.5716H198.689L199.35 75.6775H202.251L202.912 77.5716ZM200.78 71.6192L201.982 74.9046H199.618L200.78 71.6192Z" fill="black"/>
<path d="M215.496 70.8077L213.054 77.5716H211.857L209.379 70.8077H210.344L212.476 76.7601L214.567 70.8077H215.496Z" fill="black"/>
<path d="M222.66 69.8773H226.026V69.1817H222.66V69.8773Z" fill="black"/>
<path fill-rule="evenodd" clip-rule="evenodd" d="M226.454 77.5693H227.384L224.942 70.8053H223.744L221.303 77.5693H222.196L222.851 75.6751H225.758L226.454 77.5693ZM224.322 71.6169L225.484 74.9022H223.125L224.322 71.6169Z" fill="black"/>
<path d="M247.942 77.5716H246.822L243.642 71.5419V77.5716H242.79V70.8077H244.184L247.09 76.335V70.8077H247.942V77.5716Z" fill="black"/>
<path d="M255.882 69.8773H259.253V69.1817H255.882V69.8773Z" fill="black"/>
<path fill-rule="evenodd" clip-rule="evenodd" d="M259.64 77.5693H260.605L258.169 70.8053H256.966L254.488 77.5693H255.418L256.073 75.6751H258.979L259.64 77.5693ZM257.544 71.6169L258.711 74.9022H256.347L257.544 71.6169Z" fill="black"/>
<path d="M272.615 77.5716H271.453L268.78 74.5568L268.119 75.2524V77.5716H267.231V70.8077H268.119V74.3249L271.376 70.8077H272.46L269.476 73.9771L272.615 77.5716Z" fill="black"/>
<path fill-rule="evenodd" clip-rule="evenodd" d="M284.731 72.7043C284.576 72.2792 284.38 71.8928 284.111 71.5836C283.838 71.3131 283.528 71.0812 283.141 70.9266C282.754 70.7721 282.289 70.6948 281.825 70.6948C281.36 70.6948 280.932 70.7721 280.544 70.9266C280.157 71.0812 279.811 71.3131 279.538 71.5836C279.269 71.8928 279.073 72.2792 278.918 72.7043C278.764 73.1686 278.686 73.6323 278.686 74.212C278.686 74.753 278.764 75.2554 278.918 75.6805C279.073 76.1061 279.269 76.4926 279.538 76.7631C279.811 77.0723 280.157 77.3041 280.544 77.4587C280.932 77.6133 281.36 77.6906 281.825 77.6906C282.331 77.6906 282.754 77.6133 283.105 77.4587C283.492 77.3041 283.838 77.0723 284.111 76.7631C284.38 76.4926 284.576 76.1061 284.731 75.6805C284.886 75.2554 284.963 74.753 284.963 74.212C284.963 73.6323 284.886 73.1294 284.731 72.7043ZM283.451 72.1633C283.838 72.6657 284.034 73.3232 284.034 74.212C284.034 75.0622 283.838 75.7583 283.414 76.2221C283.027 76.6858 282.485 76.9177 281.825 76.9177C281.164 76.9177 280.622 76.6858 280.235 76.2221C279.811 75.7583 279.615 75.0622 279.615 74.212C279.615 73.3232 279.811 72.6657 280.199 72.1633C280.622 71.6995 281.128 71.4677 281.825 71.4677C282.521 71.4677 283.027 71.6995 283.451 72.1633Z" fill="black"/>
<path d="M296.501 71.6192H294.101V77.5716H293.208V71.6192H290.808V70.8077H296.501V71.6192Z" fill="black"/>
<path d="M307.036 77.5716H308.12V70.8077H307.305V76.335L304.362 70.8077H302.969V77.5716H303.82V71.5419L307.036 77.5716Z" fill="black"/>
<path d="M319.428 69.8773H316.058V69.1817H319.428V69.8773Z" fill="black"/>
<path d="M319.934 77.5693H315.48V70.8053H319.934V71.6169H316.367V73.4724H319.934V74.2453H316.367V76.7577H319.934V77.5693Z" fill="black"/>
<path d="M148.427 23.6903L147.11 22.9535L147.73 18.3521L145.484 13.0964L136.89 10.5458L131.155 10.1593L125.544 4.16674L120.779 1.58008L113.501 4.36254L109.123 6.68126L109.392 8.61352L110.321 19.2023L105.908 22.0672L101.572 20.6348L100.023 15.6882L97.1581 14.1012L96.1102 11.937L93.8647 7.45416L84.2635 10.7004L79.5764 22.1806L76.6341 24.1902L74.9307 39.0336L77.9143 41.0436L83.0246 35.1706L90.0707 34.511L104.323 36.0568L111.679 37.1389L116.675 34.1658L118.492 38.3766L123.644 39.8451L128.254 43.131L131.661 47.1893H135.3L140.684 45.1024H145.753L149.588 39.4587L152.494 36.7164L148.427 23.6903Z" fill="#9C1835"/>
<path d="M147.299 18.4253L146.721 22.9133L146.679 23.1812L146.912 23.3358L148.073 23.9541L148.46 25.1547C147.263 26.041 145.363 26.582 143.391 26.6232C141.104 26.6593 138.823 25.773 136.572 24.9589C135.22 24.4591 133.826 23.9181 132.468 23.6089C128.829 22.7948 124.999 24.1499 121.628 25.3093C121.319 25.4227 121.009 25.5412 120.699 25.6545C119.032 26.1956 117.447 26.8912 115.899 27.5868C113.534 28.5916 111.093 29.6736 108.46 30.2559C104.434 31.1422 100.33 31.1422 95.1011 30.2147C94.4455 30.1013 93.7848 29.9467 93.1292 29.8282C91.658 29.5191 90.1456 29.1738 88.6744 29.1326C86.1554 29.0553 83.9874 29.2511 81.9742 29.6736C80.1159 30.1013 78.0253 30.833 76.167 31.7244L76.5954 28.1278C80.4669 25.6957 85.887 25.1908 89.3713 25.4999C90.9199 25.6545 92.5098 26.1183 94.017 26.582C95.8754 27.123 97.775 27.6641 99.7107 27.7053H99.7881C103.391 27.7053 106.798 26.5047 109.389 24.3818C112.801 21.5993 115.935 19.6259 118.996 18.3892C120.968 17.5751 122.945 17.0753 124.844 16.8434C126.315 16.6476 127.864 16.8795 129.371 17.0753C129.604 17.1113 129.877 17.1526 130.146 17.1886C133.129 17.5751 136.263 17.6524 139.169 15.6067C139.597 15.2976 140.062 14.9884 140.449 14.6793C141.337 14.0197 142.23 13.3241 143.236 12.8604L145.208 13.4426L147.299 18.4253Z" fill="#FEFEFE"/>
<path d="M43.4861 8.34432H39.9966V7.64355H43.4861V8.34432Z" fill="#9C1835"/>
<path fill-rule="evenodd" clip-rule="evenodd" d="M44.8798 16.3053H43.9094L43.2125 14.373H40.1927L39.4959 16.3053H38.5667L41.1219 9.30788H42.3608L44.8798 16.3053ZM42.9441 13.5589L41.7052 10.122L40.4663 13.5589H42.9441Z" fill="#9C1835"/>
<path d="M19.2852 15.7963C19.2263 15.8198 19.171 15.8399 19.1193 15.8588C19.001 15.902 18.9015 15.9383 18.8207 15.9921C18.6658 16.0693 18.5109 16.1466 18.2787 16.2239C18.1819 16.2419 18.0755 16.2613 17.9691 16.2806L17.968 16.2808C17.8619 16.3 17.7557 16.3193 17.6592 16.3373C17.4269 16.4146 17.1941 16.4146 16.9231 16.4146C16.3811 16.4146 15.9553 16.3373 15.5294 16.2239C15.1035 16.0693 14.7546 15.8375 14.4449 15.5283C14.1351 15.2552 13.9029 14.8688 13.748 14.405C13.5544 13.9413 13.477 13.4002 13.477 12.8231C13.477 12.2409 13.5544 11.7411 13.748 11.2773C13.9029 10.8136 14.1351 10.4271 14.4449 10.118C14.7159 9.80882 15.1035 9.61301 15.5294 9.42236C15.9165 9.26778 16.3811 9.19049 16.9231 9.19049C17.2721 9.19049 17.6592 9.22656 18.0464 9.34507C18.3948 9.42236 18.8207 9.57694 19.2852 9.80881V10.9269H19.2078C18.8207 10.5817 18.4335 10.3498 18.0464 10.1953C17.6979 10.0768 17.2721 9.99946 16.8457 9.99946C16.4973 9.99946 16.1875 10.0407 15.8778 10.154C15.6068 10.2726 15.3745 10.4632 15.1422 10.6951C14.91 10.927 14.7546 11.2361 14.6384 11.5865C14.5223 11.9317 14.4449 12.3594 14.4449 12.8231C14.4449 13.323 14.5223 13.7094 14.6384 14.0959C14.7933 14.4462 14.9487 14.7142 15.181 14.9461C15.3745 15.1779 15.6455 15.3325 15.9165 15.451C16.2263 15.5644 16.536 15.6056 16.8457 15.6056C17.3108 15.6056 17.7366 15.5283 18.1238 15.3737C18.5109 15.2192 18.8594 15.0234 19.2078 14.7142H19.2852V15.7963Z" fill="#9C1835"/>
<path d="M4.30136 16.3121H5.46332V9.3147H4.61108V15.0342L1.59082 9.3147H0.119141V16.3121H1.0101V10.0876L4.30136 16.3121Z" fill="#9C1835"/>
<path fill-rule="evenodd" clip-rule="evenodd" d="M11.8482 16.3121H12.8165L10.2996 9.3147H9.06018L6.5045 16.3121H7.43365L8.13103 14.3798H11.1513L11.8482 16.3121ZM9.6409 10.1288L10.8803 13.5657H8.40203L9.6409 10.1288Z" fill="#9C1835"/>
<path d="M20.2914 16.3121H23.0427V15.5752H22.1497V10.0515H23.0427V9.3147H20.2914V10.0515H21.2206V15.5752H20.2914V16.3121Z" fill="#9C1835"/>
<path fill-rule="evenodd" clip-rule="evenodd" d="M29.854 10.118C30.1276 10.4271 30.3599 10.8136 30.5147 11.2773C30.6283 11.7411 30.7057 12.2409 30.7057 12.8232C30.7057 13.4003 30.6283 13.9052 30.4735 14.369C30.3186 14.7915 30.1276 15.1779 29.854 15.4871C29.5443 15.7963 29.1984 16.0281 28.8113 16.1827C28.4242 16.3785 27.9957 16.4558 27.4898 16.4558C26.9891 16.4558 26.5246 16.3373 26.1374 16.1827C25.7503 16.0281 25.3992 15.7963 25.1308 15.4871C24.8211 15.1779 24.625 14.7915 24.4701 14.369C24.3152 13.9052 24.2378 13.4003 24.2378 12.8232C24.2378 12.2409 24.3152 11.7411 24.4701 11.2773C24.625 10.8497 24.8211 10.4632 25.1308 10.118C25.3992 9.80882 25.7503 9.57694 26.1374 9.42236C26.5607 9.26778 26.9891 9.19049 27.4898 9.19049C27.9957 9.19049 28.4242 9.26778 28.8113 9.42236C29.2346 9.57694 29.5443 9.80882 29.854 10.118ZM29.7405 12.8232C29.7405 11.8957 29.5443 11.2 29.1572 10.7363C28.7339 10.2313 28.1919 9.9634 27.4898 9.9634C26.7568 9.9634 26.2148 10.2313 25.8277 10.7363C25.3992 11.2 25.2083 11.8957 25.2083 12.8232C25.2083 13.7094 25.3992 14.405 25.8277 14.91C26.251 15.4098 26.793 15.6417 27.4898 15.6417C28.1919 15.6417 28.7339 15.4098 29.1572 14.91C29.5443 14.405 29.7405 13.7094 29.7405 12.8232Z" fill="#9C1835"/>
<path d="M36.3625 16.3121H37.524V9.3147H36.6723V15.0342L33.6525 9.3147H32.1814V16.3121H33.0744V10.0876L36.3625 16.3121Z" fill="#9C1835"/>
<path d="M45.9683 16.3121H50.3818V15.4979H46.8974V9.3147H45.9683V16.3121Z" fill="#9C1835"/>
<path fill-rule="evenodd" clip-rule="evenodd" d="M56.8093 16.3121H55.8027L55.1471 14.3798H52.1222L51.4253 16.3121H50.4962L53.0152 9.3147H54.2541L56.8093 16.3121ZM54.8374 13.5657L53.6347 10.1288L52.3958 13.5657H54.8374Z" fill="#9C1835"/>
<path d="M57.5816 16.3121H60.3329V15.5752H59.4038V10.0515H60.3329V9.3147H57.5816V10.0515H58.4746V15.5752H57.5816V16.3121Z" fill="#9C1835"/>
<path d="M66.991 14.2917C66.991 14.5596 66.9135 14.8327 66.8 15.1006C66.6812 15.3737 66.4902 15.6056 66.258 15.7963C66.0257 15.9921 65.716 16.1466 65.4062 16.26C65.0552 16.3785 64.6681 16.4146 64.1622 16.4146C63.6615 16.4146 63.2331 16.3785 62.8098 16.26C62.4226 16.1827 61.9942 16.0281 61.607 15.8735V14.7142H61.6483C62.0355 14.9873 62.4226 15.2192 62.8872 15.3737C63.3518 15.5283 63.7751 15.6056 64.2035 15.6056C64.7868 15.6056 65.2101 15.5283 65.5198 15.2964C65.8708 15.0646 66.0257 14.7915 66.0257 14.4462C66.0257 14.1371 65.9482 13.9052 65.7934 13.7506C65.6385 13.596 65.4062 13.4775 65.0965 13.4002C64.9871 13.3833 64.8686 13.3571 64.7452 13.3299C64.6066 13.2994 64.4618 13.2675 64.3171 13.2457C64.0486 13.2096 63.7751 13.1684 63.4653 13.0911C62.8459 12.9777 62.3813 12.7459 62.0716 12.4367C61.8032 12.1275 61.6483 11.6999 61.6483 11.2C61.6483 10.6178 61.8806 10.118 62.3813 9.76759C62.8872 9.38114 63.5066 9.19049 64.2396 9.19049C64.7455 9.19049 65.2101 9.22656 65.5972 9.34507C66.0257 9.42236 66.3715 9.53572 66.6812 9.6903V10.7724H66.6451C66.3715 10.5405 66.0257 10.3859 65.5972 10.2313C65.1739 10.0768 64.7094 9.99946 64.2396 9.99946C63.7751 9.99946 63.3518 10.118 63.0421 10.3086C62.7685 10.5044 62.6136 10.7724 62.6136 11.0815C62.6136 11.3907 62.691 11.6226 62.8459 11.7771C62.9646 11.9317 63.233 12.0863 63.6202 12.1636C63.6996 12.1803 63.7976 12.1961 63.9095 12.2142C64.0739 12.2408 64.2682 12.2722 64.4771 12.3182C64.5949 12.3417 64.7055 12.3619 64.8089 12.3807C65.0455 12.4239 65.2446 12.4602 65.4062 12.514C65.9482 12.6686 66.3354 12.8592 66.6038 13.1323C66.8361 13.4002 66.991 13.7867 66.991 14.2917Z" fill="#9C1835"/>
<path fill-rule="evenodd" clip-rule="evenodd" d="M5.46332 27.8243H6.4699L3.91421 20.832H2.67483L0.119141 27.8243H1.08753L1.74568 25.8559H4.76594L5.46332 27.8243ZM3.25606 21.641L4.49493 25.083H2.05539L3.25606 21.641Z" fill="#9C1835"/>
<path d="M9.44814 21.641V27.8243H8.51899V21.641H6.00202V20.832H17.5444V21.641H15.0275V27.8243H14.0978V21.641H9.44814Z" fill="#9C1835"/>
<path d="M20.9128 27.8248H18.1646V27.0931H19.0937V21.5642H18.1646V20.8326H20.9128V21.5642H20.025V27.0931H20.9128V27.8248Z" fill="#9C1835"/>
<path d="M21.109 19.8639H17.971V19.127H21.109V19.8639Z" fill="#9C1835"/>
<path d="M27.3762 26.6231C27.531 26.35 27.5672 26.0821 27.5672 25.809C27.5672 25.3092 27.4536 24.9227 27.18 24.6496C26.9116 24.3817 26.5244 24.1498 26.0186 24.0313C25.7501 23.954 25.4404 23.8767 25.0894 23.8407C24.8254 23.788 24.6166 23.752 24.4482 23.7231L24.4463 23.7227C24.3687 23.7094 24.2995 23.6975 24.2377 23.6861C23.8505 23.5676 23.5821 23.4542 23.4273 23.2996C23.2724 23.1451 23.195 22.9132 23.195 22.604C23.195 22.2949 23.3498 22.0218 23.6596 21.8311C23.9693 21.5992 24.3564 21.522 24.8571 21.522C25.3217 21.522 25.7501 21.5992 26.1734 21.7126C26.6019 21.8672 26.9477 22.063 27.2213 22.2949H27.2987V21.2128C26.989 21.0582 26.6019 20.9397 26.2147 20.8624C25.7863 20.7439 25.363 20.7078 24.8571 20.7078C24.0828 20.7078 23.4634 20.9036 22.9627 21.2489C22.4981 21.6353 22.2245 22.0991 22.2245 22.6813C22.2245 23.2223 22.3794 23.6088 22.6891 23.954C22.9988 24.2632 23.4273 24.4951 24.0467 24.6136C24.2906 24.6744 24.5344 24.7097 24.7581 24.7421C24.8184 24.7508 24.8776 24.7594 24.9346 24.7682C25.2081 24.8042 25.4766 24.8454 25.7089 24.9227C26.0186 25 26.2509 25.1134 26.3696 25.268C26.5244 25.4226 26.6019 25.6184 26.6019 25.9275C26.6019 26.314 26.447 26.5819 26.1373 26.8138C25.8276 27.0096 25.363 27.1229 24.7797 27.1229C24.3926 27.1229 23.928 27.0457 23.5047 26.8911C23.0401 26.7365 22.6117 26.5046 22.2658 26.1955H22.1884V27.3548C22.6117 27.5506 23.0401 27.7052 23.4273 27.7825C23.8144 27.8958 24.279 27.9371 24.7797 27.9371C25.2443 27.9371 25.6314 27.8598 25.9824 27.7413C26.3283 27.664 26.6019 27.4733 26.8703 27.2775C27.1026 27.1229 27.2574 26.8911 27.3762 26.6231Z" fill="#9C1835"/>
<path d="M34.0349 21.641H31.5572V27.8243H30.6281V21.641H28.1503V20.832H34.0349V21.641Z" fill="#9C1835"/>
<path d="M34.6979 27.8248H37.4441V27.0931H36.5562V21.5642H37.4441V20.8326H34.6979V21.5642H35.6271V27.0931H34.6979V27.8248Z" fill="#9C1835"/>
<path d="M34.5018 19.8639H37.6403V19.127H34.5018V19.8639Z" fill="#9C1835"/>
<path fill-rule="evenodd" clip-rule="evenodd" d="M44.3005 25.6601C44.3005 26.0105 44.2231 26.3197 44.1095 26.5876C43.9908 26.8607 43.7998 27.0514 43.5675 27.2472C43.3352 27.4378 43.0255 27.5924 42.7158 27.6697C42.4061 27.747 42.0189 27.8243 41.5131 27.8243H39.0353V20.832H41.0898C41.6318 20.832 41.9776 20.8681 42.2512 20.9093C42.5196 20.9454 42.7519 21.0227 42.9842 21.1412C43.2165 21.2546 43.4127 21.4504 43.5262 21.641C43.645 21.8729 43.7224 22.1048 43.7224 22.4139C43.7224 22.7231 43.6449 23.0322 43.4488 23.228C43.2939 23.496 43.0616 23.6506 42.7932 23.8051V23.8464C43.2578 23.9237 43.645 24.1555 43.9134 24.4647C44.187 24.7739 44.3005 25.1964 44.3005 25.6601ZM43.3352 25.7013C43.3352 25.4283 43.2939 25.1964 43.2165 25.0418C43.1391 24.8511 42.9842 24.7326 42.7519 24.6193C42.5971 24.542 42.4061 24.4647 42.2099 24.4647C41.9776 24.4235 41.7453 24.4235 41.4356 24.4235H39.9645V27.0153H41.2033C41.5905 27.0153 41.9415 27.0153 42.2099 26.938C42.4422 26.8968 42.6745 26.8195 42.8294 26.7061C43.0255 26.5876 43.1391 26.4743 43.2165 26.3197C43.2939 26.1651 43.3352 25.9332 43.3352 25.7013ZM42.7519 22.5324C42.7519 22.3366 42.7158 22.2233 42.6745 22.1048L42.6624 22.0871C42.5889 21.9792 42.5137 21.8689 42.4061 21.7956C42.2684 21.7269 42.0981 21.6908 41.9278 21.6546L41.8641 21.641H39.9645V23.6506H41.1672C41.3486 23.6506 41.5035 23.6382 41.6318 23.6279C41.7225 23.6207 41.7999 23.6145 41.8641 23.6145C42.0189 23.5733 42.2099 23.496 42.3286 23.4187C42.4835 23.3053 42.5971 23.1868 42.6384 23.0322C42.7158 22.9189 42.7519 22.7231 42.7519 22.5324Z" fill="#9C1835"/>
<path fill-rule="evenodd" clip-rule="evenodd" d="M50.1479 27.8243H51.1132L48.5993 20.832H47.3604L44.8053 27.8243H45.7344L46.4313 25.8559H49.451L50.1479 27.8243ZM47.9386 21.641L49.1775 25.083H46.6997L47.9386 21.641Z" fill="#9C1835"/>
<path d="M57.2351 25.809C57.2351 26.0821 57.1577 26.35 57.0389 26.6231C56.8841 26.8911 56.7292 27.1229 56.4969 27.2775C56.2285 27.4733 55.9549 27.664 55.6091 27.7413C55.2994 27.8598 54.8709 27.9371 54.4063 27.9371C53.9056 27.9371 53.4772 27.8958 53.0539 27.7825C52.6668 27.7052 52.2383 27.5506 51.8512 27.3548V26.1955H51.8873C52.2383 26.5046 52.6668 26.7365 53.1313 26.8911C53.5959 27.0457 54.0192 27.1229 54.4063 27.1229C54.9897 27.1229 55.4542 27.0096 55.7639 26.8138C56.0737 26.5819 56.2647 26.314 56.2647 25.9275C56.2647 25.6184 56.1872 25.4226 56.0324 25.268C55.8775 25.1134 55.6452 25 55.3355 24.9227C55.1032 24.8454 54.8348 24.8042 54.5612 24.7682L54.4463 24.7508C54.2143 24.7159 53.9751 24.6799 53.7095 24.6136C53.09 24.4951 52.6255 24.2632 52.3158 23.954C52.006 23.6088 51.8873 23.2223 51.8873 22.6813C51.8873 22.0991 52.1196 21.6353 52.6255 21.2489C53.09 20.9036 53.7508 20.7078 54.4838 20.7078C54.9897 20.7078 55.4542 20.7439 55.8414 20.8624C56.2647 20.9397 56.6157 21.0582 56.9254 21.2128V22.2949H56.8841C56.6157 22.063 56.2647 21.8672 55.8414 21.7126C55.3768 21.5992 54.9484 21.522 54.4838 21.522C53.9831 21.522 53.5959 21.5992 53.2862 21.8311C52.9765 22.0218 52.8578 22.2949 52.8578 22.604C52.8578 22.9132 52.8991 23.1451 53.0539 23.2996C53.2088 23.4542 53.4772 23.5676 53.8643 23.6861C53.9267 23.6975 53.9963 23.7095 54.0747 23.723C54.243 23.752 54.4521 23.788 54.7161 23.8407C55.0671 23.8767 55.3768 23.954 55.6452 24.0313C56.1872 24.1498 56.5744 24.3817 56.8067 24.6496C57.0802 24.9227 57.2351 25.3092 57.2351 25.809Z" fill="#9C1835"/>
<path fill-rule="evenodd" clip-rule="evenodd" d="M4.53365 35.3276C4.64979 35.0545 4.68851 34.7454 4.68851 34.4362C4.68851 34.0498 4.64979 33.7045 4.49493 33.4314C4.34008 33.1583 4.1465 32.9677 3.8755 32.7719C3.64321 32.6173 3.37221 32.5039 3.10121 32.4627C2.79149 32.3854 2.44254 32.3494 2.01668 32.3494H0.119141V39.3065H1.04881V36.7189H1.97796C2.48125 36.7189 2.90763 36.6416 3.21735 36.5231C3.56578 36.4097 3.83678 36.2551 4.10779 35.982C4.30136 35.7914 4.4175 35.5595 4.53365 35.3276ZM3.6045 33.8591C3.68193 34.0137 3.72064 34.2456 3.72064 34.4774C3.72064 34.6681 3.72064 34.8639 3.64321 35.0185C3.6045 35.2091 3.48835 35.3637 3.33349 35.5183C3.17863 35.6368 2.98506 35.7502 2.75277 35.8274C2.51997 35.9047 2.21025 35.9047 1.86182 35.9047H1.04881V33.1223H1.97796C2.28768 33.1223 2.51997 33.1583 2.71354 33.1996C2.90763 33.2356 3.06249 33.3129 3.21735 33.3902C3.41092 33.5087 3.52707 33.6633 3.6045 33.8591Z" fill="#9C1835"/>
<path d="M10.3375 39.3065H5.92299V32.3494H6.85214V38.495H10.3375V39.3065Z" fill="#9C1835"/>
<path d="M11.889 31.376H15.3743V30.6443H11.889V31.376Z" fill="#9C1835"/>
<path fill-rule="evenodd" clip-rule="evenodd" d="M15.8002 39.3019H16.768L14.2511 32.3447H13.0122L10.4565 39.3019H11.3857L12.0825 37.3691H15.1033L15.8002 39.3019ZM13.5929 33.1537L14.8323 36.5597H12.3535L13.5929 33.1537Z" fill="#9C1835"/>
<path d="M23.1558 39.3065H22.0357L18.7042 33.081V39.3065H17.8525V32.3494H19.2849L22.3041 38.0313V32.3494H23.1558V39.3065Z" fill="#9C1835"/>
<path d="M29.8993 38.1415C30.0542 37.871 30.0903 37.6005 30.0903 37.3294C30.0903 36.8265 29.9768 36.4401 29.7032 36.1721C29.4347 35.863 29.0476 35.6672 28.5417 35.5126C28.3234 35.4832 28.0744 35.4266 27.8029 35.3649C27.7406 35.3508 27.6771 35.3364 27.6126 35.3219C27.3309 35.2919 27.1093 35.2429 26.9359 35.2044C26.871 35.1901 26.8129 35.1772 26.7609 35.1674C26.3737 35.0901 26.1001 34.9716 25.9453 34.817C25.7904 34.6263 25.713 34.3944 25.713 34.1214C25.713 33.7761 25.8678 33.5391 26.1775 33.3072C26.4873 33.1166 26.8744 32.9981 27.3803 32.9981C27.8449 32.9981 28.2733 33.0754 28.6966 33.2299C29.125 33.3845 29.4709 33.5803 29.7445 33.8122H29.8219V32.6889C29.5122 32.5755 29.1612 32.457 28.7379 32.3437C28.3094 32.2664 27.881 32.2252 27.3803 32.2252C26.606 32.2252 25.9866 32.3797 25.4807 32.7662C25.0161 33.1526 24.7477 33.6215 24.7477 34.1986C24.7477 34.7036 24.9025 35.1261 25.2123 35.4353C25.522 35.7445 25.9453 35.9763 26.5647 36.1309C26.7236 36.1521 26.8824 36.1827 27.0364 36.2124C27.1826 36.2406 27.3245 36.2679 27.4577 36.2855L27.5473 36.2991C27.7864 36.3352 28.0255 36.3714 28.232 36.4401C28.5417 36.5174 28.774 36.6359 28.8927 36.7492C29.0476 36.9038 29.125 37.1357 29.125 37.4459C29.125 37.7937 28.9702 38.1029 28.6605 38.2961C28.3507 38.528 27.881 38.6439 27.3029 38.6439C26.9157 38.6439 26.4873 38.5666 26.0227 38.412C25.5581 38.2188 25.1348 38.0256 24.7838 37.7164H24.7064V38.8758C25.0818 39.0451 25.4533 39.1551 25.8 39.2577C25.8487 39.2721 25.8975 39.2866 25.9453 39.3009C26.3324 39.3781 26.797 39.4168 27.3029 39.4168C27.7674 39.4168 28.1546 39.3781 28.5056 39.2622C28.8514 39.1463 29.125 38.9917 29.3935 38.7985C29.6257 38.6052 29.7806 38.3734 29.8993 38.1415Z" fill="#9C1835"/>
<path d="M39.496 39.3031H34.7728V38.3369C34.9403 38.2059 35.0993 38.0658 35.2587 37.9254C35.4284 37.776 35.5984 37.6262 35.7794 37.4867L35.854 37.4213C36.1388 37.1719 36.4237 36.9224 36.7085 36.6381C37.2867 36.0558 37.7151 35.5921 37.9061 35.2829C38.1384 34.9377 38.2571 34.5512 38.2571 34.1648C38.2571 33.8144 38.1384 33.5052 37.9061 33.3094C37.6738 33.1188 37.328 33.0003 36.8995 33.0003C36.6311 33.0003 36.3214 33.0415 35.9704 33.1548L35.9135 33.1764L35.8574 33.1975C35.5781 33.3023 35.2776 33.4152 35.0051 33.6237H34.9638V32.6138C35.0149 32.5968 35.068 32.578 35.1239 32.5583C35.322 32.4884 35.5548 32.4061 35.8568 32.3459C36.2026 32.2274 36.5898 32.1913 36.9408 32.1913C37.6377 32.1913 38.2158 32.3819 38.603 32.6911C39.0314 33.0415 39.2224 33.5052 39.2224 34.1236C39.2224 34.3966 39.1863 34.6285 39.1088 34.8604C39.0314 35.0922 38.954 35.3241 38.8352 35.5148C38.7853 35.5779 38.7397 35.6405 38.6942 35.7029C38.5986 35.834 38.5036 35.9644 38.3707 36.097C38.3011 36.1665 38.2242 36.2516 38.1395 36.3453C38.0358 36.46 37.9204 36.5878 37.7925 36.7154C37.5971 36.8875 37.4033 37.0589 37.2093 37.2306C37.0549 37.3672 36.9003 37.504 36.7447 37.6413C36.3988 37.9505 36.0478 38.2596 35.7381 38.4915H39.496V39.3031Z" fill="#9C1835"/>
<path fill-rule="evenodd" clip-rule="evenodd" d="M45.0385 38.5688C45.4256 37.9891 45.6166 37.0606 45.6166 35.8239C45.6166 34.6285 45.4256 33.701 45.0385 33.1188C44.6513 32.5004 44.0319 32.1913 43.2163 32.1913C42.3646 32.1913 41.7451 32.5004 41.358 33.0775C40.9708 33.6598 40.7799 34.5873 40.7799 35.8239C40.7799 37.0606 40.9708 37.9891 41.358 38.5688C41.7451 39.1485 42.3646 39.4576 43.2163 39.4576C44.0319 39.4576 44.6513 39.1485 45.0385 38.5688ZM44.61 37.0606C44.5739 37.4094 44.4965 37.6799 44.3777 37.9505C44.2642 38.1823 44.1093 38.3756 43.9132 38.4915C43.7222 38.6074 43.4899 38.6847 43.2163 38.6847C42.8704 38.6847 42.6382 38.6074 42.442 38.4915C42.251 38.3756 42.0962 38.1823 42.0187 37.9505C41.9 37.6799 41.8226 37.3703 41.7864 37.0606C41.7451 36.7154 41.7451 36.3289 41.7451 35.8239C41.7451 35.4014 41.7451 34.9737 41.7864 34.6285C41.8226 34.2421 41.9 33.9329 42.0187 33.701C42.1323 33.464 42.2871 33.2734 42.4833 33.1548C42.6743 33.0415 42.9066 32.9642 43.2163 32.9642C43.4899 32.9642 43.7222 33.0415 43.9132 33.1548C44.1093 33.2734 44.2642 33.464 44.3777 33.701C44.4965 33.9329 44.5739 34.2421 44.61 34.5873C44.6513 34.9377 44.6513 35.3602 44.6513 35.8239C44.6513 36.2877 44.6513 36.7154 44.61 37.0606Z" fill="#9C1835"/>
<path d="M51.7303 39.3031H47.0071V38.3369C47.1619 38.2017 47.327 38.0569 47.4921 37.912C47.6574 37.767 47.8226 37.622 47.9776 37.4867C48.3234 37.2152 48.6331 36.9472 48.9067 36.6381C49.5262 36.0558 49.9133 35.5921 50.1456 35.2829C50.3779 34.9377 50.4914 34.5512 50.4914 34.1648C50.4914 33.8144 50.3366 33.5052 50.1043 33.3094C49.872 33.1188 49.5262 33.0003 49.0977 33.0003C48.8293 33.0003 48.5196 33.0415 48.2099 33.1548C47.8588 33.2734 47.5491 33.3867 47.2033 33.6237H47.162V32.6138C47.1999 32.6012 47.2399 32.5876 47.2818 32.5734C47.4965 32.5005 47.7613 32.4105 48.055 32.3459C48.4421 32.2274 48.788 32.1913 49.139 32.1913C49.8359 32.1913 50.414 32.3819 50.8012 32.6911C51.2296 33.0415 51.4206 33.5052 51.4206 34.1236C51.4206 34.3966 51.3845 34.6285 51.3432 34.8604C51.2657 35.0923 51.1522 35.3241 51.0334 35.5148C50.9292 35.6944 50.7903 35.8698 50.6485 36.0487L50.6102 36.097L49.9907 36.7154C49.7293 36.9764 49.4384 37.2359 49.146 37.4968L48.9842 37.6413C48.8027 37.7862 48.6382 37.9311 48.4828 38.0681C48.3067 38.2233 48.1421 38.3683 47.9776 38.4915H51.7303V39.3031Z" fill="#9C1835"/>
<path fill-rule="evenodd" clip-rule="evenodd" d="M57.2367 38.5688C57.6238 37.9891 57.8148 37.0606 57.8148 35.8239C57.8148 34.6285 57.6238 33.701 57.2367 33.1188C56.8495 32.5004 56.2662 32.1913 55.4145 32.1913C54.6041 32.1913 53.9846 32.5004 53.5975 33.0775C53.2104 33.6598 53.0142 34.5873 53.0142 35.8239C53.0142 37.0606 53.2104 37.9891 53.5562 38.5688C53.9433 39.1485 54.5628 39.4576 55.4145 39.4576C56.2301 39.4576 56.8495 39.1485 57.2367 38.5688ZM56.8082 37.0606C56.7721 37.4094 56.6947 37.6799 56.576 37.9505C56.4985 38.1823 56.3437 38.3756 56.1527 38.4915C55.9565 38.6074 55.7242 38.6847 55.4145 38.6847C55.1048 38.6847 54.8364 38.6074 54.6402 38.4915C54.4854 38.3756 54.3305 38.1823 54.2169 37.9505C54.0982 37.6799 54.0208 37.3703 53.9846 37.0606C53.9846 36.9043 53.9762 36.7396 53.9669 36.5593C53.9557 36.3413 53.9433 36.1004 53.9433 35.8239C53.9433 35.4014 53.9846 34.9737 54.0208 34.6285C54.0621 34.2421 54.1395 33.9329 54.2169 33.701C54.3305 33.464 54.4854 33.2734 54.6815 33.1548C54.8725 33.0415 55.1048 32.9642 55.4145 32.9642C55.7242 32.9642 55.9565 33.0415 56.1527 33.1548C56.3437 33.2734 56.4985 33.464 56.576 33.701C56.6947 33.9329 56.7721 34.2421 56.8082 34.5873C56.8495 34.9377 56.8857 35.3602 56.8857 35.8239C56.8857 36.2877 56.8495 36.7154 56.8082 37.0606Z" fill="#9C1835"/>
<path d="M351.372 7.9687H355.011V7H351.372V7.9687Z" fill="black"/>
<path d="M351.217 15.6978H355.166V14.4972H354.082V10.1689H355.166V8.97349H351.217V10.1689H352.337V14.4972H351.217V15.6978Z" fill="black"/>
<path fill-rule="evenodd" clip-rule="evenodd" d="M285.542 14.8856C286.161 14.2621 286.471 13.412 286.471 12.3299C286.471 11.2478 286.161 10.3976 285.542 9.7793C284.922 9.16097 284.071 8.85181 282.987 8.85181C281.903 8.85181 281.051 9.16097 280.468 9.7793C279.848 10.3976 279.539 11.2478 279.539 12.3299C279.539 13.412 279.848 14.2621 280.468 14.8856C281.051 15.54 281.903 15.8492 282.987 15.8492C284.071 15.8492 284.922 15.54 285.542 14.8856ZM284.535 13.3347C284.458 13.6078 284.344 13.8396 284.189 14.0303C284.046 14.212 283.866 14.3228 283.689 14.4325L283.647 14.458C283.451 14.5352 283.219 14.5713 282.987 14.5713C282.796 14.5713 282.563 14.5352 282.367 14.458C282.176 14.3807 281.98 14.2261 281.825 14.0715C281.67 13.8757 281.552 13.6438 281.474 13.3759C281.397 13.1028 281.319 12.7576 281.319 12.3299C281.319 11.9434 281.397 11.5982 281.474 11.3251C281.552 11.0159 281.707 10.7841 281.867 10.6295C282.021 10.4388 282.176 10.3203 282.367 10.243C282.563 10.1657 282.796 10.1297 282.987 10.1297C283.219 10.1297 283.415 10.1657 283.647 10.243C283.838 10.3203 283.993 10.4388 284.148 10.6295C284.303 10.7841 284.422 11.0159 284.535 11.3251C284.613 11.5982 284.654 11.9434 284.654 12.3299C284.654 12.7163 284.613 13.0255 284.535 13.3347Z" fill="black"/>
<path d="M261.303 15.7003H266.181V14.4224H263.047V12.7632H265.948V11.4493H263.047V10.2899H266.181V8.97601H261.303V15.7003Z" fill="black"/>
<path d="M267.344 15.7003H271.256V14.4997H270.172V10.1714H271.256V8.97601H267.344V10.1714H268.428V14.4997H267.344V15.7003Z" fill="black"/>
<path fill-rule="evenodd" clip-rule="evenodd" d="M279.153 15.7003H277.062L275.204 13.227H274.43V15.7003H272.69V8.97601H275.591C275.978 8.97601 276.329 9.01208 276.639 9.0533C276.908 9.08937 277.181 9.20788 277.413 9.36247C277.682 9.51705 277.878 9.70769 278.033 9.93957C278.188 10.1714 278.265 10.4806 278.265 10.831C278.265 11.3308 278.146 11.7173 277.914 12.0676C277.682 12.3768 277.336 12.6087 276.908 12.8405L279.153 15.7003ZM276.443 11.0627C276.443 10.867 276.443 10.7537 276.366 10.5991C276.288 10.4806 276.175 10.4033 276.02 10.326C275.901 10.29 275.746 10.2487 275.591 10.2487C275.518 10.2487 275.438 10.2407 275.352 10.2323C275.256 10.2228 275.153 10.2127 275.049 10.2127H274.43V12.0264H274.936C275.245 12.0264 275.478 12.0264 275.633 11.9903C275.824 11.9491 275.978 11.9131 276.097 11.7945C276.252 11.7173 276.329 11.6039 276.366 11.4854C276.443 11.372 276.443 11.2533 276.443 11.0627Z" fill="black"/>
<path fill-rule="evenodd" clip-rule="evenodd" d="M293.362 11.0989C293.362 11.4081 293.284 11.7172 293.171 11.9903C293.093 12.2995 292.939 12.5314 292.742 12.722C292.474 12.9951 292.164 13.1858 291.855 13.3043C291.504 13.4589 291.08 13.5362 290.616 13.5362H289.532V15.7003H287.787V8.97601H290.652C291.08 8.97601 291.426 9.01208 291.736 9.08937C292.009 9.16666 292.278 9.28517 292.51 9.43975C292.784 9.59433 292.975 9.82621 293.13 10.0941C293.284 10.4033 293.362 10.7125 293.362 11.0989ZM291.545 11.1401C291.545 10.9443 291.504 10.7898 291.39 10.6764C291.313 10.5218 291.194 10.4445 291.039 10.3672C290.848 10.29 290.693 10.2487 290.497 10.2487H289.532V12.2583H290.032C290.306 12.2583 290.574 12.2222 290.771 12.181C290.962 12.1449 291.116 12.1037 291.235 11.9903C291.349 11.8718 291.426 11.7585 291.467 11.64C291.545 11.4854 291.545 11.3307 291.545 11.1401Z" fill="black"/>
<path fill-rule="evenodd" clip-rule="evenodd" d="M299.021 15.7003H300.802L298.324 8.97601H296.311L293.828 15.7003H295.573L296.037 14.3451H298.515L299.021 15.7003ZM297.276 10.7125L298.128 13.1085H296.466L297.276 10.7125Z" fill="black"/>
<path d="M307.153 13.6078C307.153 14.2622 306.885 14.8083 306.301 15.1948C305.759 15.6173 304.985 15.8131 304.015 15.8131C303.473 15.8131 302.972 15.7719 302.543 15.6946C302.156 15.5812 301.769 15.4627 301.382 15.3082V13.6851H301.578C301.965 13.9942 302.352 14.1849 302.776 14.3394C303.24 14.494 303.669 14.5713 304.056 14.5713H304.479C304.64 14.5417 304.746 14.5086 304.844 14.4778L304.845 14.4773C304.866 14.4707 304.887 14.4643 304.908 14.458C305.021 14.4167 305.14 14.3394 305.217 14.2622C305.331 14.1849 305.372 14.0715 305.372 13.9169C305.372 13.7623 305.295 13.6438 305.176 13.5305C305.062 13.412 304.866 13.3347 304.634 13.2574C304.491 13.2381 304.346 13.2071 304.201 13.176C304.075 13.149 303.949 13.122 303.824 13.1028C303.55 13.0667 303.282 12.9894 303.049 12.9121C302.466 12.7163 302.043 12.4845 301.81 12.1753C301.578 11.8301 301.423 11.4436 301.423 10.9799C301.423 10.3616 301.733 9.85659 302.275 9.47014C302.853 9.04762 303.55 8.85181 304.443 8.85181C304.908 8.85181 305.331 8.89303 305.759 9.00639C306.188 9.08368 306.575 9.2022 306.885 9.31556V10.8614H306.688C306.42 10.6295 306.11 10.4749 305.718 10.3203C305.295 10.1658 304.908 10.0885 304.479 10.0885C304.427 10.0885 304.366 10.0972 304.3 10.1067C304.223 10.1177 304.139 10.1297 304.056 10.1297C304.016 10.1418 303.972 10.1498 303.927 10.158C303.838 10.1744 303.744 10.1916 303.669 10.243C303.55 10.2843 303.436 10.3616 303.359 10.4388C303.282 10.5522 303.24 10.6295 303.24 10.748C303.24 10.9387 303.282 11.0572 303.436 11.1705C303.55 11.2478 303.824 11.3663 304.211 11.4436C304.327 11.4617 304.443 11.481 304.559 11.5003C304.675 11.5196 304.791 11.5389 304.908 11.557C304.993 11.5854 305.078 11.6089 305.165 11.6329C305.315 11.6743 305.471 11.7171 305.641 11.7889C306.146 11.9434 306.534 12.1753 306.766 12.4484C307.039 12.7576 307.153 13.144 307.153 13.6078Z" fill="black"/>
<path d="M316.058 15.1948C316.6 14.8083 316.873 14.2622 316.873 13.6078C316.873 13.144 316.754 12.7576 316.522 12.4484C316.29 12.1753 315.903 11.9434 315.361 11.7889C315.212 11.7161 315.048 11.6731 314.888 11.6311C314.799 11.6077 314.711 11.5847 314.628 11.557C314.445 11.5234 314.201 11.4855 313.98 11.4513L313.931 11.4436C313.552 11.368 313.321 11.2528 313.166 11.1755L313.157 11.1705C313.038 11.0572 312.96 10.9387 312.96 10.748C312.96 10.6295 313.002 10.5522 313.079 10.4388C313.157 10.3616 313.27 10.2843 313.389 10.243C313.468 10.189 313.568 10.1727 313.674 10.1555C313.719 10.1481 313.766 10.1405 313.812 10.1297C313.868 10.1297 313.931 10.1207 313.998 10.1111C314.075 10.1002 314.158 10.0885 314.241 10.0885C314.628 10.0885 315.051 10.1658 315.438 10.3203C315.825 10.4749 316.176 10.6295 316.445 10.8614H316.641V9.31556L316.545 9.28443C316.226 9.18091 315.905 9.07663 315.516 9.00639C315.051 8.89303 314.628 8.85181 314.199 8.85181C313.311 8.85181 312.573 9.04762 312.031 9.47014C311.453 9.85659 311.18 10.3616 311.18 10.9799C311.18 11.4436 311.298 11.8301 311.567 12.1753C311.799 12.4845 312.186 12.7163 312.769 12.9121C313.002 12.9894 313.27 13.0667 313.58 13.1028C313.724 13.1246 313.868 13.1565 314.005 13.187C314.127 13.2142 314.245 13.2404 314.354 13.2574C314.628 13.3347 314.783 13.412 314.896 13.5305C315.051 13.6438 315.092 13.7623 315.092 13.9169C315.092 14.0715 315.051 14.1849 314.974 14.2622C314.896 14.3394 314.783 14.4167 314.664 14.458C314.55 14.494 314.395 14.5353 314.241 14.5713H313.812C313.389 14.5713 312.96 14.494 312.537 14.3394C312.073 14.1849 311.685 13.9942 311.334 13.6851H311.143V15.3082C311.489 15.4627 311.876 15.5812 312.305 15.6946C312.728 15.7719 313.193 15.8131 313.776 15.8131C314.705 15.8131 315.479 15.6173 316.058 15.1948Z" fill="black"/>
<path fill-rule="evenodd" clip-rule="evenodd" d="M324.305 15.7003H322.488L322.024 14.3451H319.546L319.082 15.7003H317.337L319.815 8.97601H321.792L324.305 15.7003ZM321.637 13.1085L320.785 10.7125L319.969 13.1085H321.637Z" fill="black"/>
<path d="M328.915 15.7003L331.356 8.97601H329.57L327.944 13.6907L326.318 8.97601H324.501L326.979 15.7003H328.915Z" fill="black"/>
<path d="M335.959 15.7003H332.01V14.4997H333.135V10.1714H332.01V8.97601H335.959V10.1714H334.875V14.4997H335.959V15.7003Z" fill="black"/>
<path d="M337.396 15.7003H342.238V14.4224H339.1V12.7632H342.001V11.4493H339.1V10.2899H342.238V8.97601H337.396V15.7003Z" fill="black"/>
<path d="M349.825 15.7003H348.158L345.293 11.0989V15.7003H343.708V8.97601H345.757L348.235 12.8405V8.97601H349.825V15.7003Z" fill="black"/>
<path fill-rule="evenodd" clip-rule="evenodd" d="M362.333 13.6495C362.333 13.9587 362.291 14.2678 362.137 14.5409C362.023 14.7728 361.827 15.0047 361.595 15.1593C361.326 15.3551 361.053 15.5096 360.743 15.5869C360.433 15.6642 360.01 15.7003 359.545 15.7003H356.603V8.97601H359.194C359.736 8.97601 360.123 9.01208 360.397 9.0533C360.629 9.08937 360.898 9.16666 361.13 9.28517C361.404 9.39853 361.595 9.59433 361.713 9.82621C361.827 10.0169 361.904 10.2899 361.904 10.5579C361.904 10.8671 361.827 11.1762 361.636 11.4081C361.481 11.64 361.208 11.8358 360.898 11.9903V12.0264C361.362 12.1037 361.713 12.2995 361.946 12.5674C362.214 12.8405 362.333 13.1858 362.333 13.6495ZM360.552 13.6134C360.552 13.4176 360.511 13.2631 360.433 13.1497C360.32 13.0312 360.201 12.9178 360.01 12.8766C359.855 12.8405 359.659 12.7993 359.427 12.7993H358.306V14.4636H359.504C359.7 14.4636 359.891 14.4224 360.087 14.3451C360.242 14.2678 360.356 14.1905 360.433 14.036C360.511 13.9226 360.552 13.768 360.552 13.6134ZM360.123 10.9083C360.123 10.7898 360.087 10.6764 360.046 10.5579C359.969 10.4445 359.891 10.3672 359.736 10.326C359.653 10.2693 359.547 10.2542 359.42 10.2359C359.373 10.2293 359.324 10.2223 359.272 10.2127H358.306V11.64H359.272C359.324 11.6304 359.373 11.6233 359.419 11.6167C359.547 11.5984 359.653 11.5833 359.736 11.5266C359.891 11.4854 360.01 11.372 360.046 11.2535C360.087 11.1762 360.123 11.0216 360.123 10.9083Z" fill="black"/>
<path fill-rule="evenodd" clip-rule="evenodd" d="M368.063 15.7003H369.844L367.366 8.97601H365.389L362.875 15.7003H364.615L365.121 14.3451H367.599L368.063 15.7003ZM366.36 10.7125L367.175 13.1085H365.508L366.36 10.7125Z" fill="black"/>
<path d="M265.19 30H260.879V23.4565H265.19V24.23H261.749V26.0229H265.19V26.7964H261.749V29.2266H265.19V30Z" fill="black"/>
<path d="M267.531 24.2695H266.599V23.4126H267.531V24.2695ZM267.478 30H266.652V25.0913H267.478V30Z" fill="black"/>
<path d="M272.311 25.9922H272.267C272.144 25.9629 272.024 25.9424 271.907 25.9307C271.792 25.916 271.656 25.9087 271.498 25.9087C271.243 25.9087 270.997 25.9658 270.76 26.0801C270.522 26.1914 270.294 26.3364 270.074 26.5151V30H269.248V25.0913H270.074V25.8164C270.402 25.5527 270.691 25.3667 270.94 25.2583C271.192 25.147 271.448 25.0913 271.709 25.0913C271.853 25.0913 271.957 25.0957 272.021 25.1045C272.085 25.1104 272.182 25.1235 272.311 25.144V25.9922Z" fill="black"/>
<path d="M277.407 27.5479C277.407 28.3477 277.202 28.979 276.792 29.4419C276.382 29.9048 275.833 30.1362 275.144 30.1362C274.45 30.1362 273.898 29.9048 273.488 29.4419C273.08 28.979 272.877 28.3477 272.877 27.5479C272.877 26.748 273.08 26.1167 273.488 25.6538C273.898 25.188 274.45 24.9551 275.144 24.9551C275.833 24.9551 276.382 25.188 276.792 25.6538C277.202 26.1167 277.407 26.748 277.407 27.5479ZM276.555 27.5479C276.555 26.9121 276.43 26.4404 276.181 26.1328C275.932 25.8223 275.587 25.667 275.144 25.667C274.696 25.667 274.347 25.8223 274.098 26.1328C273.852 26.4404 273.729 26.9121 273.729 27.5479C273.729 28.1631 273.854 28.6304 274.103 28.9497C274.352 29.2661 274.699 29.4243 275.144 29.4243C275.584 29.4243 275.928 29.2676 276.177 28.9541C276.429 28.6377 276.555 28.1689 276.555 27.5479Z" fill="black"/>
<path d="M283.145 27.4863C283.145 27.8848 283.088 28.2495 282.974 28.5806C282.86 28.9087 282.699 29.187 282.491 29.4155C282.297 29.6323 282.069 29.8008 281.805 29.9209C281.544 30.0381 281.268 30.0967 280.975 30.0967C280.72 30.0967 280.488 30.0688 280.28 30.0132C280.075 29.9575 279.866 29.8711 279.652 29.7539V31.8105H278.826V25.0913H279.652V25.6055C279.872 25.4209 280.118 25.2671 280.39 25.144C280.665 25.0181 280.958 24.9551 281.269 24.9551C281.861 24.9551 282.321 25.1792 282.649 25.6274C282.98 26.0728 283.145 26.6924 283.145 27.4863ZM282.293 27.5083C282.293 26.9165 282.192 26.4741 281.99 26.1812C281.788 25.8882 281.477 25.7417 281.058 25.7417C280.821 25.7417 280.582 25.793 280.342 25.8955C280.102 25.998 279.872 26.1328 279.652 26.2998V29.0815C279.886 29.187 280.087 29.2588 280.254 29.2969C280.424 29.335 280.616 29.354 280.83 29.354C281.29 29.354 281.648 29.1987 281.906 28.8882C282.164 28.5776 282.293 28.1177 282.293 27.5083Z" fill="black"/>
<path d="M288.383 30H287.561V29.4771C287.487 29.5269 287.388 29.5972 287.262 29.688C287.139 29.7759 287.019 29.8462 286.902 29.8989C286.764 29.9663 286.606 30.022 286.427 30.0659C286.248 30.1128 286.039 30.1362 285.799 30.1362C285.356 30.1362 284.981 29.9897 284.674 29.6968C284.366 29.4038 284.212 29.0303 284.212 28.5762C284.212 28.2041 284.291 27.9038 284.449 27.6753C284.611 27.4438 284.839 27.2622 285.135 27.1304C285.434 26.9985 285.793 26.9092 286.212 26.8623C286.631 26.8154 287.08 26.7803 287.561 26.7568V26.6294C287.561 26.4419 287.527 26.2866 287.46 26.1636C287.395 26.0405 287.301 25.9438 287.178 25.8735C287.061 25.8062 286.921 25.7607 286.757 25.7373C286.592 25.7139 286.421 25.7021 286.242 25.7021C286.026 25.7021 285.784 25.7314 285.517 25.79C285.251 25.8457 284.975 25.9277 284.691 26.0361H284.647V25.1968C284.808 25.1528 285.041 25.1045 285.346 25.0518C285.651 24.999 285.951 24.9727 286.247 24.9727C286.592 24.9727 286.893 25.002 287.148 25.0605C287.405 25.1162 287.628 25.2129 287.816 25.3506C288 25.4854 288.141 25.6597 288.237 25.8735C288.334 26.0874 288.383 26.3525 288.383 26.6689V30ZM287.561 28.7915V27.4248C287.309 27.4395 287.011 27.4614 286.669 27.4907C286.329 27.52 286.059 27.5625 285.86 27.6182C285.623 27.6855 285.431 27.791 285.284 27.9346C285.138 28.0752 285.065 28.27 285.065 28.519C285.065 28.8003 285.15 29.0127 285.32 29.1562C285.489 29.2969 285.749 29.3672 286.097 29.3672C286.387 29.3672 286.653 29.3115 286.893 29.2002C287.133 29.0859 287.356 28.9497 287.561 28.7915Z" fill="black"/>
<path d="M293.615 28.585C293.615 29.0332 293.429 29.4009 293.057 29.688C292.688 29.9751 292.183 30.1187 291.541 30.1187C291.178 30.1187 290.844 30.0762 290.539 29.9912C290.237 29.9033 289.984 29.8081 289.779 29.7056V28.7783H289.823C290.083 28.9746 290.373 29.1313 290.693 29.2485C291.012 29.3628 291.318 29.4199 291.611 29.4199C291.975 29.4199 292.259 29.3613 292.464 29.2441C292.669 29.127 292.771 28.9424 292.771 28.6904C292.771 28.4971 292.716 28.3506 292.604 28.251C292.493 28.1514 292.279 28.0664 291.963 27.9961C291.846 27.9697 291.692 27.939 291.501 27.9038C291.314 27.8687 291.143 27.8306 290.987 27.7896C290.557 27.6753 290.25 27.5083 290.069 27.2886C289.89 27.0659 289.801 26.7935 289.801 26.4712C289.801 26.269 289.842 26.0786 289.924 25.8999C290.009 25.7212 290.136 25.5615 290.306 25.4209C290.47 25.2832 290.678 25.1748 290.93 25.0957C291.185 25.0137 291.469 24.9727 291.783 24.9727C292.076 24.9727 292.372 25.0093 292.67 25.0825C292.972 25.1528 293.223 25.2393 293.422 25.3418V26.2251H293.378C293.167 26.0698 292.911 25.9395 292.609 25.834C292.307 25.7256 292.011 25.6714 291.721 25.6714C291.419 25.6714 291.164 25.73 290.956 25.8472C290.748 25.9614 290.644 26.1328 290.644 26.3613C290.644 26.5635 290.707 26.7158 290.833 26.8184C290.956 26.9209 291.156 27.0044 291.431 27.0688C291.583 27.104 291.753 27.1392 291.941 27.1743C292.131 27.2095 292.289 27.2417 292.415 27.271C292.799 27.3589 293.095 27.5098 293.303 27.7236C293.511 27.9404 293.615 28.2275 293.615 28.585Z" fill="black"/>
<path d="M301.299 25.9922H301.255C301.132 25.9629 301.012 25.9424 300.894 25.9307C300.78 25.916 300.644 25.9087 300.486 25.9087C300.231 25.9087 299.985 25.9658 299.747 26.0801C299.51 26.1914 299.282 26.3364 299.062 26.5151V30H298.236V25.0913H299.062V25.8164C299.39 25.5527 299.679 25.3667 299.928 25.2583C300.18 25.147 300.436 25.0913 300.697 25.0913C300.84 25.0913 300.944 25.0957 301.009 25.1045C301.073 25.1104 301.17 25.1235 301.299 25.144V25.9922Z" fill="black"/>
<path d="M306.32 27.6313H302.704C302.704 27.9331 302.749 28.1968 302.84 28.4224C302.931 28.645 303.055 28.8281 303.214 28.9717C303.366 29.1123 303.546 29.2178 303.754 29.2881C303.965 29.3584 304.196 29.3936 304.448 29.3936C304.782 29.3936 305.118 29.3276 305.455 29.1958C305.795 29.061 306.036 28.9292 306.18 28.8003H306.224V29.7012C305.945 29.8184 305.661 29.9165 305.371 29.9956C305.081 30.0747 304.777 30.1143 304.457 30.1143C303.643 30.1143 303.007 29.8945 302.55 29.4551C302.093 29.0127 301.864 28.3857 301.864 27.5742C301.864 26.7715 302.083 26.1343 302.519 25.6626C302.959 25.1909 303.536 24.9551 304.251 24.9551C304.913 24.9551 305.423 25.1484 305.78 25.5352C306.14 25.9219 306.32 26.4712 306.32 27.1831V27.6313ZM305.516 26.9985C305.513 26.5649 305.403 26.2295 305.187 25.9922C304.973 25.7549 304.646 25.6362 304.207 25.6362C303.764 25.6362 303.411 25.7666 303.148 26.0273C302.887 26.2881 302.739 26.6118 302.704 26.9985H305.516Z" fill="black"/>
<path d="M311.689 29.4419C311.689 30.2739 311.5 30.8848 311.122 31.2744C310.745 31.6641 310.163 31.8589 309.378 31.8589C309.117 31.8589 308.862 31.8398 308.613 31.8018C308.367 31.7666 308.124 31.7153 307.884 31.6479V30.8042H307.928C308.062 30.8569 308.276 30.9214 308.569 30.9976C308.862 31.0767 309.155 31.1162 309.448 31.1162C309.729 31.1162 309.962 31.0825 310.147 31.0151C310.331 30.9478 310.475 30.854 310.578 30.7339C310.68 30.6196 310.753 30.4819 310.797 30.3208C310.841 30.1597 310.863 29.9795 310.863 29.7803V29.332C310.614 29.5312 310.375 29.6807 310.147 29.7803C309.921 29.877 309.633 29.9253 309.281 29.9253C308.695 29.9253 308.229 29.7144 307.884 29.2925C307.541 28.8677 307.37 28.27 307.37 27.4995C307.37 27.0776 307.428 26.7144 307.545 26.4097C307.665 26.1021 307.828 25.8369 308.033 25.6143C308.224 25.4062 308.455 25.2451 308.727 25.1309C309 25.0137 309.271 24.9551 309.54 24.9551C309.825 24.9551 310.062 24.9844 310.252 25.043C310.446 25.0986 310.649 25.1851 310.863 25.3022L310.916 25.0913H311.689V29.4419ZM310.863 28.6509V25.9746C310.643 25.875 310.438 25.8047 310.248 25.7637C310.06 25.7197 309.873 25.6978 309.685 25.6978C309.231 25.6978 308.874 25.8501 308.613 26.1548C308.352 26.4595 308.222 26.9019 308.222 27.4819C308.222 28.0327 308.319 28.4502 308.512 28.7344C308.705 29.0186 309.026 29.1606 309.475 29.1606C309.715 29.1606 309.955 29.1152 310.195 29.0244C310.438 28.9307 310.661 28.8062 310.863 28.6509ZM310.788 22.6348L310.002 24.2783H308.934L310.134 22.6348H310.788Z" fill="black"/>
<path d="M314.338 24.2695H313.406V23.4126H314.338V24.2695ZM314.285 30H313.459V25.0913H314.285V30Z" fill="black"/>
<path d="M320.239 27.5479C320.239 28.3477 320.034 28.979 319.623 29.4419C319.213 29.9048 318.664 30.1362 317.975 30.1362C317.281 30.1362 316.729 29.9048 316.319 29.4419C315.912 28.979 315.708 28.3477 315.708 27.5479C315.708 26.748 315.912 26.1167 316.319 25.6538C316.729 25.188 317.281 24.9551 317.975 24.9551C318.664 24.9551 319.213 25.188 319.623 25.6538C320.034 26.1167 320.239 26.748 320.239 27.5479ZM319.386 27.5479C319.386 26.9121 319.262 26.4404 319.013 26.1328C318.764 25.8223 318.418 25.667 317.975 25.667C317.527 25.667 317.179 25.8223 316.93 26.1328C316.683 26.4404 316.56 26.9121 316.56 27.5479C316.56 28.1631 316.685 28.6304 316.934 28.9497C317.183 29.2661 317.53 29.4243 317.975 29.4243C318.415 29.4243 318.759 29.2676 319.008 28.9541C319.26 28.6377 319.386 28.1689 319.386 27.5479Z" fill="black"/>
<path d="M325.761 30H324.935V27.2051C324.935 26.9795 324.922 26.7686 324.896 26.5723C324.869 26.373 324.821 26.2178 324.751 26.1064C324.677 25.9834 324.572 25.8926 324.434 25.834C324.297 25.7725 324.118 25.7417 323.898 25.7417C323.672 25.7417 323.437 25.7974 323.191 25.9087C322.944 26.02 322.709 26.1621 322.483 26.335V30H321.657V25.0913H322.483V25.6362C322.741 25.4224 323.007 25.2554 323.283 25.1353C323.558 25.0151 323.841 24.9551 324.131 24.9551C324.661 24.9551 325.066 25.1147 325.344 25.4341C325.622 25.7534 325.761 26.2134 325.761 26.814V30Z" fill="black"/>
<path d="M331.302 30H330.48V29.4771C330.407 29.5269 330.307 29.5972 330.181 29.688C330.058 29.7759 329.938 29.8462 329.821 29.8989C329.683 29.9663 329.525 30.022 329.346 30.0659C329.167 30.1128 328.958 30.1362 328.718 30.1362C328.275 30.1362 327.9 29.9897 327.593 29.6968C327.285 29.4038 327.131 29.0303 327.131 28.5762C327.131 28.2041 327.21 27.9038 327.369 27.6753C327.53 27.4438 327.758 27.2622 328.054 27.1304C328.353 26.9985 328.712 26.9092 329.131 26.8623C329.55 26.8154 329.999 26.7803 330.48 26.7568V26.6294C330.48 26.4419 330.446 26.2866 330.379 26.1636C330.314 26.0405 330.221 25.9438 330.098 25.8735C329.98 25.8062 329.84 25.7607 329.676 25.7373C329.512 25.7139 329.34 25.7021 329.161 25.7021C328.945 25.7021 328.703 25.7314 328.436 25.79C328.17 25.8457 327.894 25.9277 327.61 26.0361H327.566V25.1968C327.727 25.1528 327.96 25.1045 328.265 25.0518C328.57 24.999 328.87 24.9727 329.166 24.9727C329.512 24.9727 329.812 25.002 330.067 25.0605C330.325 25.1162 330.547 25.2129 330.735 25.3506C330.919 25.4854 331.06 25.6597 331.157 25.8735C331.253 26.0874 331.302 26.3525 331.302 26.6689V30ZM330.48 28.7915V27.4248C330.228 27.4395 329.931 27.4614 329.588 27.4907C329.248 27.52 328.978 27.5625 328.779 27.6182C328.542 27.6855 328.35 27.791 328.203 27.9346C328.057 28.0752 327.984 28.27 327.984 28.519C327.984 28.8003 328.069 29.0127 328.239 29.1562C328.409 29.2969 328.668 29.3672 329.016 29.3672C329.307 29.3672 329.572 29.3115 329.812 29.2002C330.052 29.0859 330.275 28.9497 330.48 28.7915ZM330.994 24.1333H327.733V23.4565H330.994V24.1333Z" fill="black"/>
<path d="M333.862 30H333.036V23.1621H333.862V30Z" fill="black"/>
<path d="M339.447 30H338.625V29.4771C338.552 29.5269 338.452 29.5972 338.326 29.688C338.203 29.7759 338.083 29.8462 337.966 29.8989C337.828 29.9663 337.67 30.022 337.491 30.0659C337.312 30.1128 337.103 30.1362 336.863 30.1362C336.42 30.1362 336.045 29.9897 335.738 29.6968C335.43 29.4038 335.276 29.0303 335.276 28.5762C335.276 28.2041 335.355 27.9038 335.514 27.6753C335.675 27.4438 335.903 27.2622 336.199 27.1304C336.498 26.9985 336.857 26.9092 337.276 26.8623C337.695 26.8154 338.144 26.7803 338.625 26.7568V26.6294C338.625 26.4419 338.591 26.2866 338.524 26.1636C338.459 26.0405 338.366 25.9438 338.243 25.8735C338.125 25.8062 337.985 25.7607 337.821 25.7373C337.657 25.7139 337.485 25.7021 337.306 25.7021C337.09 25.7021 336.848 25.7314 336.581 25.79C336.315 25.8457 336.039 25.9277 335.755 26.0361H335.711V25.1968C335.872 25.1528 336.105 25.1045 336.41 25.0518C336.715 24.999 337.015 24.9727 337.311 24.9727C337.657 24.9727 337.957 25.002 338.212 25.0605C338.47 25.1162 338.692 25.2129 338.88 25.3506C339.064 25.4854 339.205 25.6597 339.302 25.8735C339.398 26.0874 339.447 26.3525 339.447 26.6689V30ZM338.625 28.7915V27.4248C338.373 27.4395 338.076 27.4614 337.733 27.4907C337.393 27.52 337.123 27.5625 336.924 27.6182C336.687 27.6855 336.495 27.791 336.348 27.9346C336.202 28.0752 336.129 28.27 336.129 28.519C336.129 28.8003 336.214 29.0127 336.384 29.1562C336.554 29.2969 336.813 29.3672 337.161 29.3672C337.452 29.3672 337.717 29.3115 337.957 29.2002C338.197 29.0859 338.42 28.9497 338.625 28.7915ZM339.139 24.1333H335.878V23.4565H339.139V24.1333Z" fill="black"/>
<path d="M344.679 28.585C344.679 29.0332 344.493 29.4009 344.121 29.688C343.752 29.9751 343.247 30.1187 342.605 30.1187C342.242 30.1187 341.908 30.0762 341.603 29.9912C341.301 29.9033 341.048 29.8081 340.843 29.7056V28.7783H340.887C341.148 28.9746 341.438 29.1313 341.757 29.2485C342.076 29.3628 342.382 29.4199 342.675 29.4199C343.039 29.4199 343.323 29.3613 343.528 29.2441C343.733 29.127 343.836 28.9424 343.836 28.6904C343.836 28.4971 343.78 28.3506 343.669 28.251C343.557 28.1514 343.343 28.0664 343.027 27.9961C342.91 27.9697 342.756 27.939 342.566 27.9038C342.378 27.8687 342.207 27.8306 342.051 27.7896C341.621 27.6753 341.315 27.5083 341.133 27.2886C340.954 27.0659 340.865 26.7935 340.865 26.4712C340.865 26.269 340.906 26.0786 340.988 25.8999C341.073 25.7212 341.2 25.5615 341.37 25.4209C341.534 25.2832 341.742 25.1748 341.994 25.0957C342.249 25.0137 342.533 24.9727 342.847 24.9727C343.14 24.9727 343.436 25.0093 343.734 25.0825C344.036 25.1528 344.287 25.2393 344.486 25.3418V26.2251H344.442C344.231 26.0698 343.975 25.9395 343.673 25.834C343.371 25.7256 343.075 25.6714 342.785 25.6714C342.483 25.6714 342.229 25.73 342.021 25.8472C341.813 25.9614 341.709 26.1328 341.709 26.3613C341.709 26.5635 341.772 26.7158 341.898 26.8184C342.021 26.9209 342.22 27.0044 342.495 27.0688C342.648 27.104 342.817 27.1392 343.005 27.1743C343.195 27.2095 343.354 27.2417 343.48 27.271C343.863 27.3589 344.159 27.5098 344.367 27.7236C344.575 27.9404 344.679 28.2275 344.679 28.585Z" fill="black"/>
<path d="M264.627 41H263.806V40.4771C263.732 40.5269 263.633 40.5972 263.507 40.688C263.384 40.7759 263.264 40.8462 263.146 40.8989C263.009 40.9663 262.851 41.022 262.672 41.0659C262.493 41.1128 262.284 41.1362 262.043 41.1362C261.601 41.1362 261.226 40.9897 260.918 40.6968C260.611 40.4038 260.457 40.0303 260.457 39.5762C260.457 39.2041 260.536 38.9038 260.694 38.6753C260.855 38.4438 261.084 38.2622 261.38 38.1304C261.679 37.9985 262.038 37.9092 262.457 37.8623C262.875 37.8154 263.325 37.7803 263.806 37.7568V37.6294C263.806 37.4419 263.772 37.2866 263.705 37.1636C263.64 37.0405 263.546 36.9438 263.423 36.8735C263.306 36.8062 263.166 36.7607 263.001 36.7373C262.837 36.7139 262.666 36.7021 262.487 36.7021C262.271 36.7021 262.029 36.7314 261.762 36.79C261.496 36.8457 261.22 36.9277 260.936 37.0361H260.892V36.1968C261.053 36.1528 261.286 36.1045 261.591 36.0518C261.896 35.999 262.196 35.9727 262.492 35.9727C262.837 35.9727 263.138 36.002 263.393 36.0605C263.65 36.1162 263.873 36.2129 264.061 36.3506C264.245 36.4854 264.386 36.6597 264.482 36.8735C264.579 37.0874 264.627 37.3525 264.627 37.6689V41ZM263.806 39.7915V38.4248C263.554 38.4395 263.256 38.4614 262.914 38.4907C262.574 38.52 262.304 38.5625 262.105 38.6182C261.868 38.6855 261.676 38.791 261.529 38.9346C261.383 39.0752 261.31 39.27 261.31 39.519C261.31 39.8003 261.395 40.0127 261.564 40.1562C261.734 40.2969 261.994 40.3672 262.342 40.3672C262.632 40.3672 262.897 40.3115 263.138 40.2002C263.378 40.0859 263.601 39.9497 263.806 39.7915Z" fill="black"/>
<path d="M268.902 40.9561C268.747 40.9971 268.577 41.0308 268.392 41.0571C268.211 41.0835 268.048 41.0967 267.905 41.0967C267.404 41.0967 267.023 40.9619 266.762 40.6924C266.501 40.4229 266.371 39.9907 266.371 39.396V36.7856H265.813V36.0913H266.371V34.6807H267.197V36.0913H268.902V36.7856H267.197V39.0225C267.197 39.2803 267.203 39.4824 267.215 39.6289C267.226 39.7725 267.267 39.9072 267.338 40.0332C267.402 40.1504 267.49 40.2368 267.601 40.2925C267.716 40.3452 267.888 40.3716 268.12 40.3716C268.255 40.3716 268.395 40.3525 268.542 40.3145C268.688 40.2734 268.794 40.2397 268.858 40.2134H268.902V40.9561Z" fill="black"/>
<path d="M272.588 40.9561C272.433 40.9971 272.263 41.0308 272.078 41.0571C271.896 41.0835 271.734 41.0967 271.59 41.0967C271.089 41.0967 270.708 40.9619 270.448 40.6924C270.187 40.4229 270.057 39.9907 270.057 39.396V36.7856H269.499V36.0913H270.057V34.6807H270.883V36.0913H272.588V36.7856H270.883V39.0225C270.883 39.2803 270.889 39.4824 270.9 39.6289C270.912 39.7725 270.953 39.9072 271.023 40.0332C271.088 40.1504 271.176 40.2368 271.287 40.2925C271.401 40.3452 271.574 40.3716 271.806 40.3716C271.94 40.3716 272.081 40.3525 272.228 40.3145C272.374 40.2734 272.479 40.2397 272.544 40.2134H272.588V40.9561Z" fill="black"/>
<path d="M275.399 35.1333H272.894V34.4565H275.399V35.1333ZM274.56 41H273.734V36.0913H274.56V41Z" fill="black"/>
<path d="M279.836 39.585C279.836 40.0332 279.65 40.4009 279.278 40.688C278.909 40.9751 278.404 41.1187 277.762 41.1187C277.399 41.1187 277.065 41.0762 276.76 40.9912C276.458 40.9033 276.205 40.8081 276 40.7056V39.7783H276.044C276.305 39.9746 276.595 40.1313 276.914 40.2485C277.233 40.3628 277.54 40.4199 277.832 40.4199C278.196 40.4199 278.48 40.3613 278.685 40.2441C278.89 40.127 278.993 39.9424 278.993 39.6904C278.993 39.4971 278.937 39.3506 278.826 39.251C278.714 39.1514 278.5 39.0664 278.184 38.9961C278.067 38.9697 277.913 38.939 277.723 38.9038C277.535 38.8687 277.364 38.8306 277.208 38.7896C276.778 38.6753 276.472 38.5083 276.29 38.2886C276.111 38.0659 276.022 37.7935 276.022 37.4712C276.022 37.269 276.063 37.0786 276.145 36.8999C276.23 36.7212 276.357 36.5615 276.527 36.4209C276.691 36.2832 276.899 36.1748 277.151 36.0957C277.406 36.0137 277.69 35.9727 278.004 35.9727C278.297 35.9727 278.593 36.0093 278.892 36.0825C279.193 36.1528 279.444 36.2393 279.643 36.3418V37.2251H279.599C279.388 37.0698 279.132 36.9395 278.83 36.834C278.528 36.7256 278.232 36.6714 277.942 36.6714C277.641 36.6714 277.386 36.73 277.178 36.8472C276.97 36.9614 276.866 37.1328 276.866 37.3613C276.866 37.5635 276.929 37.7158 277.055 37.8184C277.178 37.9209 277.377 38.0044 277.652 38.0688C277.805 38.104 277.975 38.1392 278.162 38.1743C278.353 38.2095 278.511 38.2417 278.637 38.271C279.02 38.3589 279.316 38.5098 279.524 38.7236C279.732 38.9404 279.836 39.2275 279.836 39.585Z" fill="black"/>
<path d="M283.707 40.9561C283.551 40.9971 283.382 41.0308 283.197 41.0571C283.015 41.0835 282.853 41.0967 282.709 41.0967C282.208 41.0967 281.827 40.9619 281.567 40.6924C281.306 40.4229 281.175 39.9907 281.175 39.396V36.7856H280.617V36.0913H281.175V34.6807H282.002V36.0913H283.707V36.7856H282.002V39.0225C282.002 39.2803 282.008 39.4824 282.019 39.6289C282.031 39.7725 282.072 39.9072 282.142 40.0332C282.207 40.1504 282.295 40.2368 282.406 40.2925C282.52 40.3452 282.693 40.3716 282.925 40.3716C283.059 40.3716 283.2 40.3525 283.346 40.3145C283.493 40.2734 283.598 40.2397 283.663 40.2134H283.707V40.9561Z" fill="black"/>
<path d="M286.518 35.1333H284.013V34.4565H286.518V35.1333ZM285.679 41H284.852V36.0913H285.679V41Z" fill="black"/>
<path d="M291.768 38.5083C291.768 38.9185 291.71 39.2876 291.592 39.6157C291.478 39.9438 291.323 40.2192 291.127 40.4419C290.919 40.6733 290.69 40.8477 290.441 40.9648C290.192 41.0791 289.918 41.1362 289.619 41.1362C289.341 41.1362 289.098 41.1025 288.89 41.0352C288.682 40.9707 288.477 40.8828 288.275 40.7715L288.222 41H287.448V34.1621H288.275V36.6055C288.506 36.415 288.752 36.2598 289.013 36.1396C289.274 36.0166 289.567 35.9551 289.892 35.9551C290.472 35.9551 290.929 36.1777 291.263 36.623C291.6 37.0684 291.768 37.6968 291.768 38.5083ZM290.916 38.5303C290.916 37.9443 290.819 37.5005 290.626 37.1987C290.432 36.894 290.12 36.7417 289.69 36.7417C289.449 36.7417 289.206 36.7944 288.96 36.8999C288.714 37.0024 288.486 37.1357 288.275 37.2998V40.1123C288.509 40.2178 288.71 40.291 288.877 40.332C289.047 40.373 289.238 40.3936 289.452 40.3936C289.909 40.3936 290.267 40.2441 290.525 39.9453C290.785 39.6436 290.916 39.1719 290.916 38.5303Z" fill="black"/>
<path d="M297.005 41H296.184V40.4771C296.11 40.5269 296.011 40.5972 295.885 40.688C295.762 40.7759 295.642 40.8462 295.524 40.8989C295.387 40.9663 295.228 41.022 295.05 41.0659C294.871 41.1128 294.662 41.1362 294.421 41.1362C293.979 41.1362 293.604 40.9897 293.296 40.6968C292.989 40.4038 292.835 40.0303 292.835 39.5762C292.835 39.2041 292.914 38.9038 293.072 38.6753C293.233 38.4438 293.462 38.2622 293.758 38.1304C294.057 37.9985 294.415 37.9092 294.834 37.8623C295.253 37.8154 295.703 37.7803 296.184 37.7568V37.6294C296.184 37.4419 296.15 37.2866 296.082 37.1636C296.018 37.0405 295.924 36.9438 295.801 36.8735C295.684 36.8062 295.543 36.7607 295.379 36.7373C295.215 36.7139 295.044 36.7021 294.865 36.7021C294.648 36.7021 294.407 36.7314 294.14 36.79C293.873 36.8457 293.598 36.9277 293.314 37.0361H293.27V36.1968C293.431 36.1528 293.664 36.1045 293.969 36.0518C294.273 35.999 294.574 35.9727 294.87 35.9727C295.215 35.9727 295.516 36.002 295.77 36.0605C296.028 36.1162 296.251 36.2129 296.438 36.3506C296.623 36.4854 296.764 36.6597 296.86 36.8735C296.957 37.0874 297.005 37.3525 297.005 37.6689V41ZM296.184 39.7915V38.4248C295.932 38.4395 295.634 38.4614 295.291 38.4907C294.952 38.52 294.682 38.5625 294.483 38.6182C294.246 38.6855 294.054 38.791 293.907 38.9346C293.761 39.0752 293.687 39.27 293.687 39.519C293.687 39.8003 293.772 40.0127 293.942 40.1562C294.112 40.2969 294.372 40.3672 294.72 40.3672C295.01 40.3672 295.275 40.3115 295.516 40.2002C295.756 40.0859 295.978 39.9497 296.184 39.7915Z" fill="black"/>
<path d="M302.238 39.585C302.238 40.0332 302.052 40.4009 301.68 40.688C301.311 40.9751 300.805 41.1187 300.164 41.1187C299.8 41.1187 299.466 41.0762 299.162 40.9912C298.86 40.9033 298.607 40.8081 298.402 40.7056V39.7783H298.445C298.706 39.9746 298.996 40.1313 299.316 40.2485C299.635 40.3628 299.941 40.4199 300.234 40.4199C300.597 40.4199 300.882 40.3613 301.087 40.2441C301.292 40.127 301.394 39.9424 301.394 39.6904C301.394 39.4971 301.339 39.3506 301.227 39.251C301.116 39.1514 300.902 39.0664 300.586 38.9961C300.468 38.9697 300.315 38.939 300.124 38.9038C299.937 38.8687 299.765 38.8306 299.61 38.7896C299.179 38.6753 298.873 38.5083 298.692 38.2886C298.513 38.0659 298.423 37.7935 298.423 37.4712C298.423 37.269 298.465 37.0786 298.547 36.8999C298.632 36.7212 298.759 36.5615 298.929 36.4209C299.093 36.2832 299.301 36.1748 299.553 36.0957C299.808 36.0137 300.092 35.9727 300.405 35.9727C300.698 35.9727 300.994 36.0093 301.293 36.0825C301.595 36.1528 301.845 36.2393 302.045 36.3418V37.2251H302.001C301.79 37.0698 301.533 36.9395 301.232 36.834C300.93 36.7256 300.634 36.6714 300.344 36.6714C300.042 36.6714 299.787 36.73 299.579 36.8472C299.371 36.9614 299.267 37.1328 299.267 37.3613C299.267 37.5635 299.33 37.7158 299.456 37.8184C299.579 37.9209 299.778 38.0044 300.054 38.0688C300.206 38.104 300.376 38.1392 300.564 38.1743C300.754 38.2095 300.912 38.2417 301.038 38.271C301.422 38.3589 301.718 38.5098 301.926 38.7236C302.134 38.9404 302.238 39.2275 302.238 39.585Z" fill="black"/>
<path d="M309.5 34.9619H309.456C309.365 34.9355 309.246 34.9092 309.1 34.8828C308.953 34.8535 308.824 34.8389 308.713 34.8389C308.359 34.8389 308.101 34.918 307.94 35.0762C307.781 35.2314 307.702 35.5142 307.702 35.9243V36.0913H309.192V36.7856H307.729V41H306.902V36.7856H306.344V36.0913H306.902V35.9287C306.902 35.3457 307.048 34.8989 307.338 34.5884C307.628 34.2749 308.047 34.1182 308.594 34.1182C308.779 34.1182 308.944 34.127 309.091 34.1445C309.24 34.1621 309.377 34.1826 309.5 34.2061V34.9619Z" fill="black"/>
<path d="M314.341 38.5479C314.341 39.3477 314.136 39.979 313.726 40.4419C313.316 40.9048 312.766 41.1362 312.078 41.1362C311.384 41.1362 310.831 40.9048 310.421 40.4419C310.014 39.979 309.81 39.3477 309.81 38.5479C309.81 37.748 310.014 37.1167 310.421 36.6538C310.831 36.188 311.384 35.9551 312.078 35.9551C312.766 35.9551 313.316 36.188 313.726 36.6538C314.136 37.1167 314.341 37.748 314.341 38.5479ZM313.489 38.5479C313.489 37.9121 313.364 37.4404 313.115 37.1328C312.866 36.8223 312.52 36.667 312.078 36.667C311.63 36.667 311.281 36.8223 311.032 37.1328C310.786 37.4404 310.663 37.9121 310.663 38.5479C310.663 39.1631 310.787 39.6304 311.037 39.9497C311.286 40.2661 311.633 40.4243 312.078 40.4243C312.517 40.4243 312.862 40.2676 313.111 39.9541C313.363 39.6377 313.489 39.1689 313.489 38.5479Z" fill="black"/>
<path d="M319.864 41H319.038V38.2051C319.038 37.9795 319.025 37.7686 318.998 37.5723C318.972 37.373 318.923 37.2178 318.853 37.1064C318.78 36.9834 318.674 36.8926 318.537 36.834C318.399 36.7725 318.22 36.7417 318.001 36.7417C317.775 36.7417 317.539 36.7974 317.293 36.9087C317.047 37.02 316.811 37.1621 316.586 37.335V41H315.759V36.0913H316.586V36.6362C316.843 36.4224 317.11 36.2554 317.385 36.1353C317.661 36.0151 317.943 35.9551 318.234 35.9551C318.764 35.9551 319.168 36.1147 319.446 36.4341C319.725 36.7534 319.864 37.2134 319.864 37.814V41Z" fill="black"/>
<path d="M325.571 41H324.745V40.4858C324.508 40.6909 324.26 40.8506 324.002 40.9648C323.744 41.0791 323.465 41.1362 323.163 41.1362C322.577 41.1362 322.111 40.9106 321.765 40.4595C321.423 40.0083 321.251 39.3828 321.251 38.583C321.251 38.167 321.31 37.7964 321.427 37.4712C321.547 37.146 321.708 36.8691 321.911 36.6406C322.11 36.418 322.341 36.248 322.605 36.1309C322.871 36.0137 323.147 35.9551 323.431 35.9551C323.689 35.9551 323.917 35.9829 324.117 36.0386C324.316 36.0913 324.525 36.1748 324.745 36.2891V34.1621H325.571V41ZM324.745 39.7915V36.9746C324.522 36.875 324.323 36.8062 324.147 36.7681C323.972 36.73 323.78 36.7109 323.572 36.7109C323.109 36.7109 322.748 36.8721 322.491 37.1943C322.233 37.5166 322.104 37.9736 322.104 38.5654C322.104 39.1484 322.203 39.5923 322.403 39.897C322.602 40.1987 322.921 40.3496 323.361 40.3496C323.595 40.3496 323.832 40.2983 324.073 40.1958C324.313 40.0903 324.537 39.9556 324.745 39.7915Z" fill="black"/>
<path d="M330.839 39.585C330.839 40.0332 330.653 40.4009 330.281 40.688C329.912 40.9751 329.406 41.1187 328.765 41.1187C328.401 41.1187 328.067 41.0762 327.763 40.9912C327.461 40.9033 327.208 40.8081 327.003 40.7056V39.7783H327.046C327.307 39.9746 327.597 40.1313 327.917 40.2485C328.236 40.3628 328.542 40.4199 328.835 40.4199C329.198 40.4199 329.483 40.3613 329.688 40.2441C329.893 40.127 329.995 39.9424 329.995 39.6904C329.995 39.4971 329.94 39.3506 329.828 39.251C329.717 39.1514 329.503 39.0664 329.187 38.9961C329.069 38.9697 328.916 38.939 328.725 38.9038C328.538 38.8687 328.366 38.8306 328.211 38.7896C327.78 38.6753 327.474 38.5083 327.293 38.2886C327.114 38.0659 327.025 37.7935 327.025 37.4712C327.025 37.269 327.066 37.0786 327.148 36.8999C327.233 36.7212 327.36 36.5615 327.53 36.4209C327.694 36.2832 327.902 36.1748 328.154 36.0957C328.409 36.0137 328.693 35.9727 329.006 35.9727C329.299 35.9727 329.595 36.0093 329.894 36.0825C330.196 36.1528 330.446 36.2393 330.646 36.3418V37.2251H330.602C330.391 37.0698 330.134 36.9395 329.833 36.834C329.531 36.7256 329.235 36.6714 328.945 36.6714C328.643 36.6714 328.388 36.73 328.18 36.8472C327.972 36.9614 327.868 37.1328 327.868 37.3613C327.868 37.5635 327.931 37.7158 328.057 37.8184C328.18 37.9209 328.379 38.0044 328.655 38.0688C328.807 38.104 328.977 38.1392 329.165 38.1743C329.355 38.2095 329.513 38.2417 329.639 38.271C330.023 38.3589 330.319 38.5098 330.527 38.7236C330.735 38.9404 330.839 39.2275 330.839 39.585Z" fill="black"/>
</svg>
