<svg width="42" height="30" viewBox="0 0 42 30" fill="none" xmlns="http://www.w3.org/2000/svg">
<rect width="42" height="30" rx="3" fill="#B6B6B6"/>
<path d="M13.681 5C14.122 5 14.5016 5.31992 14.5859 5.76211L14.6434 6.25H30.7747C31.5531 6.25 32.1743 7.04102 31.9557 7.83828L29.8851 15.3398C29.7356 15.8789 29.2525 16.25 28.7041 16.25H16.5453L16.8981 18.125H28.7118C29.2218 18.125 29.6321 18.543 29.6321 19.0625C29.6321 19.582 29.2218 20 28.7118 20H16.1005C15.6941 20 15.3145 19.6797 15.2301 19.2383L12.9195 6.875H10.9203C10.4122 6.875 10 6.45508 10 5.9375C10 5.41992 10.4122 5 10.9203 5H13.681ZM20.4295 12.0312H22.1167V13.75C22.1167 14.1797 22.4272 14.5312 22.8835 14.5312C23.3053 14.5312 23.6504 14.1797 23.6504 13.75V12.0312H25.3375C25.7593 12.0312 26.1044 11.6797 26.1044 11.25C26.1044 10.7852 25.7593 10.4688 25.3375 10.4688H23.6504V8.75C23.6504 8.31836 23.3053 7.96875 22.8835 7.96875C22.4272 7.96875 22.1167 8.31836 22.1167 8.75V10.4688H20.4295C19.9732 10.4688 19.6627 10.7852 19.6627 11.25C19.6627 11.6797 19.9732 12.0312 20.4295 12.0312ZM14.908 23.125C14.908 22.0898 15.7324 21.25 16.7485 21.25C17.7646 21.25 18.589 22.0898 18.589 23.125C18.589 24.1602 17.7646 25 16.7485 25C15.7324 25 14.908 24.1602 14.908 23.125ZM29.6321 23.125C29.6321 24.1602 28.8077 25 27.7916 25C26.7754 25 25.951 24.1602 25.951 23.125C25.951 22.0898 26.7754 21.25 27.7916 21.25C28.8077 21.25 29.6321 22.0898 29.6321 23.125Z" fill="white"/>
</svg>
