<svg width="60" height="44" viewBox="0 0 60 44" fill="none" xmlns="http://www.w3.org/2000/svg">
<path d="M0 3C0 1.34315 1.34315 0 3 0H60V44H3C1.34315 44 0 42.6569 0 41V3Z" fill="#3A8544"/>
<path d="M41.9927 21.9785C41.9927 22.752 41.3676 23.3578 40.6593 23.3578H39.3259L39.3551 30.2371C39.3551 30.3574 39.3467 30.4691 39.3342 30.5852V31.2812C39.3342 32.2309 38.5884 33 37.6675 33H37.0008C36.955 33 36.9091 32.9613 36.8633 32.9957C36.8049 32.9613 36.7466 33 36.6883 33H34.334C33.4131 33 32.6673 32.2309 32.6673 31.2812V27.5C32.6673 26.7395 32.0714 26.125 31.3339 26.125H28.6671C27.9296 26.125 27.3337 26.7395 27.3337 27.5V31.2812C27.3337 32.2309 26.5879 33 25.667 33H23.3377C23.2752 33 23.2127 32.9957 23.1502 32.9914C23.1002 32.9957 23.0502 33 23.0002 33H22.3335C21.4131 33 20.6668 32.2309 20.6668 31.2812V26.4688C20.6668 26.4301 20.668 26.3871 20.6705 26.3484V23.3578H19.3355C18.5842 23.3578 18 22.752 18 21.9785C18 21.5918 18.1252 21.248 18.4171 20.9473L29.1005 11.3444C29.3921 11.0431 29.7255 11 30.0172 11C30.3088 11 30.6422 11.0861 30.8964 11.3014L41.5343 20.9473C41.8677 21.248 42.0385 21.5918 41.9927 21.9785Z" fill="white"/>
</svg>
