<svg width="40" height="30" viewBox="0 0 40 30" fill="none" xmlns="http://www.w3.org/2000/svg">
<rect width="40" height="30" fill="#232B2B"/>
<path d="M30.5393 16.0605L22.6818 23.5605C22.3773 23.8559 21.9746 24.0012 21.5719 24.0012C21.1692 24.0012 20.7675 23.8547 20.4611 23.5617C19.8472 22.9758 19.8472 22.0266 20.4611 21.4406L25.6382 16.5012H10.5714C9.70366 16.5012 9 15.8309 9 15.0012C9 14.1715 9.70366 13.5012 10.5714 13.5012H25.6382L20.462 8.56055C19.8482 7.97461 19.8482 7.02539 20.462 6.43945C21.0759 5.85352 22.0704 5.85352 22.6842 6.43945L30.5417 13.9395C31.1532 14.5277 31.1532 15.4746 30.5393 16.0605Z" fill="white"/>
</svg>
