<svg width="40" height="30" viewBox="0 0 40 30" fill="none" xmlns="http://www.w3.org/2000/svg">
<rect width="40" height="30" fill="#232B2B"/>
<path d="M31 15C31 15.8297 30.3406 16.5 29.4697 16.5H14.378L19.5644 21.4406C20.1795 22.0266 20.1795 22.9758 19.5644 23.5617C19.2544 23.8547 18.8509 24 18.4474 24C18.0439 24 17.6414 23.8535 17.3344 23.5605L9.46131 16.0605C8.84623 15.4746 8.84623 14.5254 9.46131 13.9395L17.3344 6.43945C17.9494 5.85352 18.9459 5.85352 19.561 6.43945C20.176 7.02539 20.176 7.97461 19.561 8.56055L14.378 13.5H29.4697C30.3406 13.5 31 14.1703 31 15Z" fill="white"/>
</svg>
