<svg width="16" height="16" viewBox="0 0 16 16" fill="none" xmlns="http://www.w3.org/2000/svg">
<g clip-path="url(#clip0_1279_3182)">
<path d="M9.04764 1.71437C9.04764 1.13588 9.51579 0.666748 10.0953 0.666748H14.2563C14.4265 0.666748 14.564 0.694903 14.6851 0.746302C14.7801 0.797046 14.9241 0.872016 15.0256 0.971212C15.0256 0.972849 15.0256 0.974486 15.0289 0.975796C15.2319 1.17943 15.3039 1.44526 15.3334 1.71109C15.3334 1.7124 15.3334 1.71338 15.3334 1.71437V5.90484C15.3334 6.48431 14.8652 6.95246 14.2857 6.95246C13.7063 6.95246 13.2381 6.48431 13.2381 5.90484V4.24502L7.69228 9.78758C7.28306 10.1968 6.62175 10.1968 6.21252 9.78758C5.80329 9.37836 5.80329 8.71705 6.21252 8.30782L11.7551 2.76199H10.0953C9.51579 2.76199 9.04764 2.29285 9.04764 1.71437ZM0.666687 3.80961C0.666687 2.65231 1.60463 1.71437 2.76193 1.71437H5.90478C6.48425 1.71437 6.9524 2.1835 6.9524 2.76199C6.9524 3.34145 6.48425 3.80961 5.90478 3.80961H2.76193V13.2382H12.1905V10.0953C12.1905 9.51586 12.6587 9.0477 13.2381 9.0477C13.8176 9.0477 14.2857 9.51586 14.2857 10.0953V13.2382C14.2857 14.3938 13.3462 15.3334 12.1905 15.3334H2.76193C1.60463 15.3334 0.666687 14.3938 0.666687 13.2382V3.80961Z" fill="#3A8544"/>
</g>
<defs>
<clipPath id="clip0_1279_3182">
<rect width="16" height="16" fill="white"/>
</clipPath>
</defs>
</svg>
