<svg width="60" height="44" viewBox="0 0 60 44" fill="none" xmlns="http://www.w3.org/2000/svg">
<path d="M0 0H57C58.6569 0 60 1.34315 60 3V41C60 42.6569 58.6569 44 57 44H0V0Z" fill="#3A8544"/>
<g clip-path="url(#clip0_1157_885)">
<path d="M41.4515 30.7984L35.8406 25.1875C37.1165 23.2933 37.746 20.9265 37.409 18.4047C36.8343 14.1151 33.3187 10.6244 29.0249 10.0807C22.641 9.27295 17.2729 14.6411 18.0808 21.025C18.6245 25.3206 22.1158 28.839 26.4058 29.4109C28.9276 29.7479 31.2948 29.1186 33.1886 27.8425L38.7995 33.4534C39.5317 34.1856 40.719 34.1856 41.4512 33.4534C42.1828 32.7203 42.1828 31.5297 41.4515 30.7984ZM21.7078 19.75C21.7078 16.4415 24.3993 13.75 27.7078 13.75C31.0162 13.75 33.7078 16.4415 33.7078 19.75C33.7078 23.0584 31.0162 25.75 27.7078 25.75C24.3993 25.75 21.7078 23.0594 21.7078 19.75Z" fill="white"/>
</g>
<defs>
<clipPath id="clip0_1157_885">
<rect width="24" height="24" fill="white" transform="translate(18 10)"/>
</clipPath>
</defs>
</svg>
