<svg width="24" height="24" viewBox="0 0 24 24" fill="none" xmlns="http://www.w3.org/2000/svg">
<path d="M21.6137 19.6571C22.2027 20.2633 22.1076 21.1638 21.4005 21.6687C21.0888 21.8912 20.7104 22 20.3343 22C19.8567 22 19.3828 21.8249 19.0537 21.4857L11.9995 14.1928L4.94764 21.4472C4.61807 21.7863 4.14455 21.9615 3.66696 21.9615C3.29099 21.9615 2.91283 21.8527 2.60086 21.6302C1.8936 21.1253 1.79829 20.2248 2.38764 19.6186L9.83006 11.9623L2.38639 4.34459C1.79719 3.73834 1.8924 2.8379 2.59982 2.33299C3.30604 1.82674 4.35652 1.90817 4.9466 2.51576L11.9995 9.76869L19.0513 2.51424C19.6398 1.90799 20.6908 1.82585 21.3981 2.33147C22.1053 2.83638 22.2006 3.73683 21.6113 4.34308L14.1689 11.9993L21.6137 19.6571Z" fill="black"/>
</svg>
